<?xml version="1.0" standalone="yes"?>
<svg xmlns="http://www.w3.org/2000/svg" width="1000" height="1400">
<path style="fill:#f2f1f1; stroke:none;" d="M0 0L0 1400L1000 1400L1000 0L0 0z"/>
<path style="fill:#c9a07c; stroke:none;" d="M358 484L360 535L359 535L359 502L358 502L358 623L359 623L359 618L360 618L358 660L642 659C642 620.276 643 581.718 643 543C643 530.349 646.969 508.649 639.362 498.001C624.829 477.659 586.66 485.035 565 485C496.111 484.889 426.951 484 358 484z"/>
<path style="fill:#9e9fa9; stroke:none;" d="M359 485L359 487L361 487L361 485L359 485M358 489L359 535L360 535L360 502L358 489z"/>
<path style="fill:#c9a07c; stroke:none;" d="M358 491L359 492L358 491z"/>
<path style="fill:#9e9fa9; stroke:none;" d="M430 558L431 559L430 558z"/>
<path style="fill:#64636c; stroke:none;" d="M430 589L431 589L431 559L447 559L447 565L443 565C446.277 566.074 449.52 562.915 446.968 559.603C444.674 556.627 432.332 556.806 430.603 560.318C427.225 567.185 430 581.363 430 589z"/>
<path style="fill:#9e9fa9; stroke:none;" d="M447 558L448 559L447 558z"/>
<path style="fill:#64636c; stroke:none;" d="M460 558L460 562L461 562L461 559L468 560L460 558M481 558L481 559L498 559L498 565L489 565L489 566C495.92 565.995 498.911 565.523 499 558L481 558M511 558L511 559L519 559L511 558z"/>
<path style="fill:#9e9fa9; stroke:none;" d="M540.667 558.333L541.333 558.667L540.667 558.333z"/>
<path style="fill:#64636c; stroke:none;" d="M542.667 558.333L543.333 558.667L542.667 558.333z"/>
<path style="fill:#9e9fa9; stroke:none;" d="M544 558L544 559L551 559L544 558z"/>
<path style="fill:#64636c; stroke:none;" d="M551 558L552 559L551 558z"/>
<path style="fill:#9e9fa9; stroke:none;" d="M552.667 558.333L553.333 558.667L552.667 558.333z"/>
<path style="fill:#58473c; stroke:none;" d="M431 559L431 589L437 589C437.84 586.077 436.809 581.888 438.198 579.318C440.942 574.239 448.847 578.472 445 570L438 571L438 565L447 565L447 559L431 559M461 559C459.586 566.619 455.42 591.583 468 588C467.45 579.453 472.745 559.386 461 559z"/>
<path style="fill:#9e9fa9; stroke:none;" d="M480 559L480 587L481 587L480 559z"/>
<path style="fill:#58473c; stroke:none;" d="M481 559C481 565.449 477.971 582.275 482.028 587.397C484.072 589.978 497.364 590.556 497.364 586C497.364 581.425 488.88 583.864 489 577L498 577L498 571L489 571L489 565L498 565L498 559L481 559M511 559C511 566.387 508.328 580.037 511.603 586.682C514.53 592.62 527.502 589.389 528 583L518 582L519 559L511 559z"/>
<path style="fill:#64636c; stroke:none;" d="M539 559L539 568L540 568L539 559z"/>
<path style="fill:#58473c; stroke:none;" d="M540 559C539.988 563.66 539.155 568.362 539.519 573C539.825 576.89 538.109 583.228 539.757 586.682C541.418 590.164 547.94 589.156 551 588.699C566.734 586.349 570.36 559.359 553 561L540 559z"/>
<path style="fill:#64636c; stroke:none;" d="M553 561L557 561L553 561z"/>
<path style="fill:#9e9fa9; stroke:none;" d="M556 559L557 560L556 559M468 560L468 570L469 570L468 560M557 560L558 561L557 560M510 561L511 562L510 561z"/>
<path style="fill:#64636c; stroke:none;" d="M558 561L562 565L558 561z"/>
<path style="fill:#9e9fa9; stroke:none;" d="M559 561L560 562L559 561M459 562L459 568L460 568L459 562M519 562L519 569L520 569L519 562M538 562L538 571L539 571L538 562M560 562L561 563L560 562M561 563L562 564L561 563M359.333 564.667L359.667 565.333L359.333 564.667M510 564L510 570L511 570L510 564M562 564L563 565L562 564z"/>
<path style="fill:#64636c; stroke:none;" d="M438 565L439 566L438 565z"/>
<path style="fill:#9e9fa9; stroke:none;" d="M439 565L439 566L443 566L439 565z"/>
<path style="fill:#64636c; stroke:none;" d="M546 565L546 580L547 580L547 566L557 570C553.899 566.088 550.905 565.119 546 565z"/>
<path style="fill:#9e9fa9; stroke:none;" d="M438 566L440 570L438 566M489 566L491 570L489 566z"/>
<path style="fill:#64636c; stroke:none;" d="M544.333 566.667L544.667 567.333L544.333 566.667z"/>
<path style="fill:#9e9fa9; stroke:none;" d="M547 566L548 567L547 566z"/>
<path style="fill:#c9a07c; stroke:none;" d="M548.603 567.122C544.611 569.753 546.129 585.915 553.687 580.137C558.746 576.269 554.928 562.952 548.603 567.122z"/>
<path style="fill:#9e9fa9; stroke:none;" d="M551 566L552 567L551 566z"/>
<path style="fill:#64636c; stroke:none;" d="M563 566L564 567L563 566z"/>
<path style="fill:#9e9fa9; stroke:none;" d="M491 567L492 568L491 567M564 567L565 568L564 567z"/>
<path style="fill:#64636c; stroke:none;" d="M564.333 568.667L564.667 569.333L564.333 568.667z"/>
<path style="fill:#9e9fa9; stroke:none;" d="M443.667 569.333L444.333 569.667L443.667 569.333z"/>
<path style="fill:#64636c; stroke:none;" d="M539.333 569.667L539.667 570.333L539.333 569.667z"/>
<path style="fill:#9e9fa9; stroke:none;" d="M555 569L556 570L555 569z"/>
<path style="fill:#64636c; stroke:none;" d="M438.667 570.333L439.333 570.667L438.667 570.333M441 570L441 571L444 571L441 570M445 570L446 573L447 573L447 570L445 570M487 570L488 571L487 570M489 570L490 571L489 570M492 570L492 571L499 572L492 570z"/>
<path style="fill:#9e9fa9; stroke:none;" d="M498 570L499 571L498 570M519 570L519 573L520 573L519 570M556.333 570.667L556.667 571.333L556.333 570.667M459 571L459 589L460 589L459 571z"/>
<path style="fill:#64636c; stroke:none;" d="M538 571L539 582L540 582L538 571z"/>
<path style="fill:#9e9fa9; stroke:none;" d="M565 571L566 572L565 571M498 572L498 577L499 577L498 572z"/>
<path style="fill:#64636c; stroke:none;" d="M557.333 572.667L557.667 573.333L557.333 572.667M565 572L565 575L566 575L565 572M518 573L518 578L519 578L518 573z"/>
<path style="fill:#9e9fa9; stroke:none;" d="M538 573C538 578.828 535.61 588.767 543 590L543 589L539 589L538 573M556 574L556 577L557 577L556 574M510.333 575.667L510.667 576.333L510.333 575.667M565.333 575.667L565.667 576.333L565.333 575.667M359 576L359 580L360 580L359 576z"/>
<path style="fill:#64636c; stroke:none;" d="M446 576L447 577L446 576M438 577L437 582L438 582L438 577z"/>
<path style="fill:#9e9fa9; stroke:none;" d="M439 577L439 578L446 578L439 577z"/>
<path style="fill:#64636c; stroke:none;" d="M489 577L490 578L489 577z"/>
<path style="fill:#9e9fa9; stroke:none;" d="M490.667 577.333L491.333 577.667L490.667 577.333z"/>
<path style="fill:#64636c; stroke:none;" d="M492 577L492 578L495 578L492 577z"/>
<path style="fill:#9e9fa9; stroke:none;" d="M495 577L496 578L495 577z"/>
<path style="fill:#64636c; stroke:none;" d="M496 577L497 578L496 577z"/>
<path style="fill:#9e9fa9; stroke:none;" d="M497 577L498 578L497 577z"/>
<path style="fill:#64636c; stroke:none;" d="M556.333 577.667L556.667 578.333L556.333 577.667z"/>
<path style="fill:#9e9fa9; stroke:none;" d="M438 578L438 586L439 586L438 578M489 578L492 582L492 581L489 578z"/>
<path style="fill:#64636c; stroke:none;" d="M564.333 578.667L564.667 579.333L564.333 578.667z"/>
<path style="fill:#9e9fa9; stroke:none;" d="M510 579L510 583L511 583L510 579z"/>
<path style="fill:#64636c; stroke:none;" d="M555 579L556 580L555 579M488 580L489 581L488 580M518.333 580.667L518.667 581.333L518.333 580.667z"/>
<path style="fill:#9e9fa9; stroke:none;" d="M546 580L548 582L546 580z"/>
<path style="fill:#64636c; stroke:none;" d="M554 580L555 581L554 580M557 580L558 581L557 580M546 581L547 582L546 581z"/>
<path style="fill:#9e9fa9; stroke:none;" d="M551 581L552 582L551 581z"/>
<path style="fill:#64636c; stroke:none;" d="M552.667 581.333L553.333 581.667L552.667 581.333M563 581L564 582L563 581M489 582L489 583L498 584L489 582M519 582L519 583L528 583L527 589C533.387 583.391 522.838 582.003 519 582z"/>
<path style="fill:#9e9fa9; stroke:none;" d="M528 582L529 583L528 582z"/>
<path style="fill:#64636c; stroke:none;" d="M547 582L547 583L552 583L547 582M562 582L558 587L562 582z"/>
<path style="fill:#9e9fa9; stroke:none;" d="M498 583L498 586L499 586L498 583M562 583L563 584L562 583M510 584C510.381 588.89 512.276 589.845 517 590L517 589L511 589L510 584M561 584L562 585L561 584M560 585L561 586L560 585z"/>
<path style="fill:#64636c; stroke:none;" d="M467 586L468 587L467 586M498 586L497 589L498 586z"/>
<path style="fill:#9e9fa9; stroke:none;" d="M559 586L560 587L559 586M358 587L358 590L359 590L358 587z"/>
<path style="fill:#64636c; stroke:none;" d="M480 587L482 589L480 587M539.333 587.667L539.667 588.333L539.333 587.667M556 587L557 588L556 587z"/>
<path style="fill:#9e9fa9; stroke:none;" d="M557 587L558 588L557 587z"/>
<path style="fill:#64636c; stroke:none;" d="M433 588L434 589L433 588M435 588L436 589L435 588M437 588L438 589L437 588M460 588L461 589L460 588M467 588L468 589L467 588z"/>
<path style="fill:#9e9fa9; stroke:none;" d="M480 588L481 589L480 588z"/>
<path style="fill:#64636c; stroke:none;" d="M511 588L512 589L511 588M517 590L520 589L517 590M552 588L552 589L555 589L552 588z"/>
<path style="fill:#9e9fa9; stroke:none;" d="M555 588L556 589L555 588M463.667 589.333L464.333 589.667L463.667 589.333M481 589L481 590L496 590L481 589M518 589L518 590L528 590L518 589M544 589L544 590L552 590L544 589M411 616L412 616L412 606L422 608C414.169 600.004 411.001 608.862 411 616M434 606L434 607L443 606L434 606M463.667 605.333L464.333 605.667L463.667 605.333z"/>
<path style="fill:#64636c; stroke:none;" d="M460 607L460 608L478 608C472.965 603.282 466 605.098 460 607z"/>
<path style="fill:#9e9fa9; stroke:none;" d="M475 605L476 606L475 605M497 605L497 606L509 606L497 605z"/>
<path style="fill:#64636c; stroke:none;" d="M494 612L501 613L501 612L495 607L515 607L515 606C508.492 604.116 494.905 604.002 494 612z"/>
<path style="fill:#9e9fa9; stroke:none;" d="M510 605L510 606L513 606L510 605M531.667 605.333L532.333 605.667L531.667 605.333M535 605L536 606L535 605M539 605L539 606L544 606L539 605z"/>
<path style="fill:#64636c; stroke:none;" d="M557 613L558 613C562 604.821 568.505 606.287 576 608C569.576 602.742 559.392 604.66 557 613z"/>
<path style="fill:#9e9fa9; stroke:none;" d="M571.667 605.333L572.333 605.667L571.667 605.333z"/>
<path style="fill:#64636c; stroke:none;" d="M412 606L412 607L423 610C419.842 606.208 416.75 606.017 412 606M434 623L431 621L435 624L435 607L442 607L441 636C446.174 631.478 443 612.768 443 606C431.759 606.04 434 613.884 434 623z"/>
<path style="fill:#9e9fa9; stroke:none;" d="M461 606L462 607L461 606z"/>
<path style="fill:#58473c; stroke:none;" d="M466 606.465C445.398 610.206 452.021 639.795 472 636.671C493.217 633.352 487.172 602.62 466 606.465z"/>
<path style="fill:#9e9fa9; stroke:none;" d="M477 606L478 607L477 606M494 606L495 607L494 606z"/>
<path style="fill:#58473c; stroke:none;" d="M495 607C495.827 610.795 497.171 611.696 501 612C501.386 619.495 496.936 638.436 509 635L509 612L515 612L514 606L495 607z"/>
<path style="fill:#9e9fa9; stroke:none;" d="M515 606L515 611L516 611L515 606z"/>
<path style="fill:#64636c; stroke:none;" d="M526 607L527 611L528 611L527 607L544 607L526 607z"/>
<path style="fill:#9e9fa9; stroke:none;" d="M561 606L562 607L561 606z"/>
<path style="fill:#58473c; stroke:none;" d="M558 629L556 634C563.557 636.395 582.286 636.842 576.141 623.108C574.02 618.368 567.201 617.239 564 613L576 608C569.118 605.819 553.177 605.768 557.618 617.956C558.409 620.128 578.039 633.644 562.045 630.273C560.707 629.991 559.3 629.405 558 629M412 607L412 636C422.869 635.87 418.094 626.004 420 618L421 618C422.934 621.733 435.507 641.227 440.972 634.396C444.922 629.459 442 613.228 442 607L435 607L435 624C426.388 617.413 424.098 607.043 412 607z"/>
<path style="fill:#9e9fa9; stroke:none;" d="M459 607L460 608L459 607M478 607L479 608L478 607z"/>
<path style="fill:#58473c; stroke:none;" d="M527 607L527 635L543 636L543 630L535 631L534 624L543 624L543 618C537.423 619.263 534.454 617.955 534 612L544 612L544 607L527 607z"/>
<path style="fill:#9e9fa9; stroke:none;" d="M544 607L544 612L545 612L544 607z"/>
<path style="fill:#64636c; stroke:none;" d="M458 608L459 609L458 608M479 608L485 614L479 608z"/>
<path style="fill:#9e9fa9; stroke:none;" d="M480 608L481 609L480 608M526 608L526 612L527 612L526 608z"/>
<path style="fill:#64636c; stroke:none;" d="M457 609L458 610L457 609z"/>
<path style="fill:#9e9fa9; stroke:none;" d="M481 609L482 610L481 609z"/>
<path style="fill:#64636c; stroke:none;" d="M575 609L571 612L571 613L575 609M456 610L457 611L456 610z"/>
<path style="fill:#9e9fa9; stroke:none;" d="M482 610L483 611L482 610M494 610L495 611L494 610M575 610L576 611L575 610M424 611L425 612L424 611z"/>
<path style="fill:#64636c; stroke:none;" d="M455 611L456 612L455 611z"/>
<path style="fill:#9e9fa9; stroke:none;" d="M483 611L484 612L483 611z"/>
<path style="fill:#64636c; stroke:none;" d="M515 611L516 612L515 611M567.667 611.333L568.333 611.667L567.667 611.333M424 612L425 613L424 612z"/>
<path style="fill:#9e9fa9; stroke:none;" d="M454 612L455 613L454 612z"/>
<path style="fill:#64636c; stroke:none;" d="M467 612L467 613L472 613L467 612z"/>
<path style="fill:#9e9fa9; stroke:none;" d="M484 612L485 613L484 612z"/>
<path style="fill:#64636c; stroke:none;" d="M509 612L509 613L515 613L509 612M526 612L526 625L527 625C528.181 620.633 528.83 615.736 526 612M534 612C534.194 617.9 536.348 618.933 542 619L542 618L535 618L535 613L544 613L534 612M559 612L560 613L559 612M565 612L564 615L565 615L565 612z"/>
<path style="fill:#9e9fa9; stroke:none;" d="M566 612L567 613L566 612M570 612L571 613L570 612M574 612L575 613L574 612z"/>
<path style="fill:#64636c; stroke:none;" d="M425 613L426 614L425 613M454 613L455 614L454 613M464 613C458.939 619.34 459.105 626.227 467 630L467 629C459.573 623.466 462.793 620.331 464 613z"/>
<path style="fill:#9e9fa9; stroke:none;" d="M465 613L464 615L465 613z"/>
<path style="fill:#c9a07c; stroke:none;" d="M466.109 613.862C456.893 617.91 463.99 632.784 472.942 627.971C481.64 623.296 475.009 609.952 466.109 613.862z"/>
<path style="fill:#9e9fa9; stroke:none;" d="M472 613L473 614L472 613z"/>
<path style="fill:#64636c; stroke:none;" d="M473 613L473 614L477 616L473 613z"/>
<path style="fill:#9e9fa9; stroke:none;" d="M500.333 613.667L500.667 614.333L500.333 613.667M509 613L509 628L510 628L509 613M526.333 613.667L526.667 614.333L526.333 613.667M556 613L557 614L556 613M565 613L566 614L565 613z"/>
<path style="fill:#64636c; stroke:none;" d="M426.333 614.667L426.667 615.333L426.333 614.667z"/>
<path style="fill:#9e9fa9; stroke:none;" d="M453 614L454 615L453 614M474 614L475 615L474 614M485 614L486 615L485 614z"/>
<path style="fill:#64636c; stroke:none;" d="M556.333 614.667L556.667 615.333L556.333 614.667M453.333 615.667L453.667 616.333L453.333 615.667z"/>
<path style="fill:#9e9fa9; stroke:none;" d="M475 615L476 616L475 615z"/>
<path style="fill:#64636c; stroke:none;" d="M485 615L485 619L486 619L485 615M501 615L502 616L501 615z"/>
<path style="fill:#9e9fa9; stroke:none;" d="M565 615L566 616L565 615z"/>
<path style="fill:#64636c; stroke:none;" d="M412 616L412 619L413 619L412 616M427 616L429 618L427 616z"/>
<path style="fill:#9e9fa9; stroke:none;" d="M428 616L429 617L428 616M462 616L463 617L462 616M476 616L477 617L476 616M556 616L556 619L557 619L556 616z"/>
<path style="fill:#64636c; stroke:none;" d="M566 616L569 618L569 617L566 616z"/>
<path style="fill:#9e9fa9; stroke:none;" d="M567 616L568 617L567 616M452 617L452 625L453 625L452 617z"/>
<path style="fill:#64636c; stroke:none;" d="M477.333 617.667L477.667 618.333L477.333 617.667z"/>
<path style="fill:#9e9fa9; stroke:none;" d="M526 617L526 622L527 622L526 617M535 617L535 618L544 618L535 617M569.667 617.333L570.333 617.667L569.667 617.333M359 618L358 627L359 627L359 618z"/>
<path style="fill:#64636c; stroke:none;" d="M420 618L419 632L420 632C420 627.698 418.694 619.174 422 620L420 618M429 618L430 619L429 618z"/>
<path style="fill:#9e9fa9; stroke:none;" d="M461 618L461 621L462 621L461 618z"/>
<path style="fill:#64636c; stroke:none;" d="M543 618L543 624L544 624L543 618M570.667 618.333L571.333 618.667L570.667 618.333z"/>
<path style="fill:#9e9fa9; stroke:none;" d="M572 618L573 619L572 618M420 619L421 620L420 619z"/>
<path style="fill:#64636c; stroke:none;" d="M430 619L431 620L430 619z"/>
<path style="fill:#9e9fa9; stroke:none;" d="M477 619L478 620L477 619M486 619L487 620L486 619z"/>
<path style="fill:#64636c; stroke:none;" d="M557 619L560 622L557 619M573 619L574 620L573 619z"/>
<path style="fill:#9e9fa9; stroke:none;" d="M574 619L575 620L574 619M421 620L422 621L421 620z"/>
<path style="fill:#64636c; stroke:none;" d="M427.333 620.667L427.667 621.333L427.333 620.667z"/>
<path style="fill:#9e9fa9; stroke:none;" d="M431 620L432 621L431 620z"/>
<path style="fill:#64636c; stroke:none;" d="M486.333 620.667L486.667 621.333L486.333 620.667z"/>
<path style="fill:#9e9fa9; stroke:none;" d="M557 620L558 621L557 620M575 620L577 624L578 624L575 620z"/>
<path style="fill:#64636c; stroke:none;" d="M422 621L423 622L422 621z"/>
<path style="fill:#9e9fa9; stroke:none;" d="M432 621L433 622L432 621M477.333 621.667L477.667 622.333L477.333 621.667M558 621L559 622L558 621z"/>
<path style="fill:#64636c; stroke:none;" d="M565 621L566 622L565 621M575 621L576 622L575 621M423 622L424 623L423 622z"/>
<path style="fill:#9e9fa9; stroke:none;" d="M433 622L434 623L433 622M486.333 622.667L486.667 623.333L486.333 622.667z"/>
<path style="fill:#64636c; stroke:none;" d="M501.333 622.667L501.667 623.333L501.333 622.667M560.667 622.333L561.333 622.667L560.667 622.333M576 622L577 623L576 622M424 623L425 624L424 623z"/>
<path style="fill:#9e9fa9; stroke:none;" d="M461 623L462 624L461 623z"/>
<path style="fill:#64636c; stroke:none;" d="M477.333 623.667L477.667 624.333L477.333 623.667M485 623L485 626L486 626L485 623z"/>
<path style="fill:#9e9fa9; stroke:none;" d="M562 623L563 624L562 623z"/>
<path style="fill:#64636c; stroke:none;" d="M563.667 623.333L564.333 623.667L563.667 623.333z"/>
<path style="fill:#9e9fa9; stroke:none;" d="M411 624L411 631L412 631L411 624z"/>
<path style="fill:#64636c; stroke:none;" d="M425 624L426 625L425 624M534 624L535 631L536 631L534 624z"/>
<path style="fill:#9e9fa9; stroke:none;" d="M535 624L535 625L542 625L535 624M565.667 624.333L566.333 624.667L565.667 624.333z"/>
<path style="fill:#64636c; stroke:none;" d="M567 624L568 625L567 624M577 624L578 625L577 624M426 625L427 628L428 628L426 625M453.333 625.667L453.667 626.333L453.333 625.667z"/>
<path style="fill:#9e9fa9; stroke:none;" d="M462 625L463 626L462 625z"/>
<path style="fill:#64636c; stroke:none;" d="M476 625L472 629L472 630L476 625M508 625L509 626L508 625z"/>
<path style="fill:#9e9fa9; stroke:none;" d="M526.333 625.667L526.667 626.333L526.333 625.667M568 625L569 626L568 625M577 625L578 626L577 625M426 626L427 627L426 626M463 626L464 627L463 626M475 626L476 627L475 626M485 626L486 627L485 626z"/>
<path style="fill:#64636c; stroke:none;" d="M569 626L566 630L566 631C568.722 629.913 570.003 628.947 569 626M577 626L577 629L578 629L577 626z"/>
<path style="fill:#9e9fa9; stroke:none;" d="M464 627L465 628L464 627M474 627L475 628L474 627z"/>
<path style="fill:#64636c; stroke:none;" d="M508 627L508 634L509 634L508 627M526 627L526 635L527 635L526 627z"/>
<path style="fill:#9e9fa9; stroke:none;" d="M558 627L559 628L558 627z"/>
<path style="fill:#64636c; stroke:none;" d="M428 628L431 631L428 628M454 628L455 629L454 628z"/>
<path style="fill:#9e9fa9; stroke:none;" d="M465 628L466 629L465 628M473 628L474 629L473 628z"/>
<path style="fill:#64636c; stroke:none;" d="M484 628L482 632L483 632L484 628M558 628L558 629L565 631L565 630L558 628z"/>
<path style="fill:#9e9fa9; stroke:none;" d="M560 628L561 629L560 628M568 628L569 629L568 628M428 629L429 630L428 629M454 629L455 630L454 629M467 629L467 630L472 630L467 629M484 629L485 630L484 629M535.667 629.333L536.333 629.667L535.667 629.333M557 629L558 630L557 629M561.667 629.333L562.333 629.667L561.667 629.333M567 629L568 630L567 629M577 629L578 630L577 629M429 630L430 631L429 630z"/>
<path style="fill:#64636c; stroke:none;" d="M455 630L456 631L455 630M538 630L538 631L542 631L538 630M543 630L544 631L543 630M557 630L558 631L557 630z"/>
<path style="fill:#9e9fa9; stroke:none;" d="M565 630L566 631L565 630z"/>
<path style="fill:#64636c; stroke:none;" d="M576 630L575 634L576 634L576 630M412.333 631.667L412.667 632.333L412.333 631.667z"/>
<path style="fill:#9e9fa9; stroke:none;" d="M430 631L431 632L430 631z"/>
<path style="fill:#64636c; stroke:none;" d="M456 631L457 632L456 631M556 631L557 632L556 631z"/>
<path style="fill:#9e9fa9; stroke:none;" d="M358 632L359 633L358 632z"/>
<path style="fill:#64636c; stroke:none;" d="M431 632L433 634L433 632L431 632z"/>
<path style="fill:#9e9fa9; stroke:none;" d="M456 632L457 633L456 632z"/>
<path style="fill:#64636c; stroke:none;" d="M481 632L482 633L481 632M534 632L535 633L534 632M561 632L562 633L561 632z"/>
<path style="fill:#9e9fa9; stroke:none;" d="M576 632L577 633L576 632M457 633L458 634L457 633z"/>
<path style="fill:#64636c; stroke:none;" d="M458 633L459 634L458 633M480 633L481 634L480 633M555 633L556 634L555 633M419.333 634.667L419.667 635.333L419.333 634.667M433 634L435 636L433 634M459.667 634.333L460.333 634.667L459.667 634.333z"/>
<path style="fill:#9e9fa9; stroke:none;" d="M556 634L557 635L556 634z"/>
<path style="fill:#64636c; stroke:none;" d="M557 634L558 635L557 634M573 634L571 635L571 636L573 634z"/>
<path style="fill:#9e9fa9; stroke:none;" d="M574 634L575 635L574 634M420 635L421 636L420 635M433 635L434 636L433 635z"/>
<path style="fill:#64636c; stroke:none;" d="M461.667 635.333L462.333 635.667L461.667 635.333M476 635L477 636L476 635z"/>
<path style="fill:#9e9fa9; stroke:none;" d="M477 635L478 636L477 635z"/>
<path style="fill:#64636c; stroke:none;" d="M501 635L502 636L501 635M508 635L509 636L508 635M527 635L528 636L527 635M537 635L538 636L537 635M541 635L542 636L541 635M543 635L544 636L543 635z"/>
<path style="fill:#9e9fa9; stroke:none;" d="M558 635L559 636L558 635z"/>
<path style="fill:#64636c; stroke:none;" d="M559.667 635.333L560.333 635.667L559.667 635.333z"/>
<path style="fill:#9e9fa9; stroke:none;" d="M573 635L574 636L573 635M412 636L412 637L420 637L412 636M435 636L435 637L438 637L435 636M440 636L441 637L440 636M463 636L464 637L463 636z"/>
<path style="fill:#64636c; stroke:none;" d="M464.667 636.333L465.333 636.667L464.667 636.333M473 636L473 637L476 637L473 636z"/>
<path style="fill:#9e9fa9; stroke:none;" d="M502 636L502 637L509 637L502 636M528 636L528 637L540 637L528 636M542 636L543 637L542 636M561 636L562 637L561 636z"/>
<path style="fill:#64636c; stroke:none;" d="M562 636L562 637L570 637L562 636z"/>
<path style="fill:#9e9fa9; stroke:none;" d="M570 636L571 637L570 636M467 637L467 638L473 638L467 637z"/>
<path style="fill:#c9a07c; stroke:none;" d="M357 667L356 669L356 670C358.158 669.022 358.501 668.812 357 667z"/>
<path style="fill:#9e9fa9; stroke:none;" d="M356.667 668.333L357.333 668.667L356.667 668.333M368 676L377 675C373.798 671.897 369.606 671.193 368 676z"/>
<path style="fill:#c9a07c; stroke:none;" d="M372 672L373 673L372 672z"/>
<path style="fill:#9e9fa9; stroke:none;" d="M378 672L378 677L379 677L379 673L383 674L383 675L380 676L384 676L383 672L378 672z"/>
<path style="fill:#64636c; stroke:none;" d="M369.333 673.667L369.667 674.333L369.333 673.667M371 673L374 675L374 674L371 673z"/>
<path style="fill:#c9a07c; stroke:none;" d="M377 673L378 674L377 673z"/>
<path style="fill:#64636c; stroke:none;" d="M379 673L379 676L380 676L379 673z"/>
<path style="fill:#f2f1f1; stroke:none;" d="M380 674L381 675L380 674z"/>
<path style="fill:#c9a07c; stroke:none;" d="M381 674L382 675L381 674z"/>
<path style="fill:#64636c; stroke:none;" d="M382 674L383 675L382 674z"/>
<path style="fill:#c9a07c; stroke:none;" d="M357 675L358 678L359 678L357 675z"/>
<path style="fill:#9e9fa9; stroke:none;" d="M356 676L356 678L358 678L358 676L356 676z"/>
<path style="fill:#c9a07c; stroke:none;" d="M382 676L383 677L382 676M596 679L597 680L596 679M598 679L599 680L598 679z"/>
<path style="fill:#9e9fa9; stroke:none;" d="M586 680L586 732C593.947 732 609.111 734.893 615.852 730.142C619.529 727.551 618.998 722.973 619 719C619.004 710.751 623.201 687.314 616.683 681.568C610.55 676.162 593.62 680 586 680z"/>
<path style="fill:#c9a07c; stroke:none;" d="M602 679L603 680L602 679M606 679L607 680L606 679M609 679L610 680L609 679M586 681L587 682L586 681z"/>
<path style="fill:#f2f1f1; stroke:none;" d="M588 681L588 730C594.761 730 610.048 732.799 615.489 728.139C621.714 722.807 618.036 700.573 617.999 693C617.983 689.669 618.303 685.254 615.486 682.858C610.187 678.351 594.78 681.014 588 681z"/>
<path style="fill:#c9a07c; stroke:none;" d="M596 681L597 682L596 681M600 681L601 682L600 681M613 681L614 682L613 681M617 681L618 682L617 681z"/>
<path style="fill:#9e9fa9; stroke:none;" d="M447 685L448 685L450 683L449 689L450 689L451 684L452 684L453 690L454 690L455 687L456 689L457 689L457 684L454 682C450.813 682.216 447.451 681.425 447 685M457 682L458 688L459 688L457 682M460 682L460 683L465 684L460 682M470 690L470 689L467 689L467 683L469 683L468 688L470 682C465.227 683.584 465.227 688.416 470 690M476 689L476 682C470.522 682.951 469.666 689.968 476 689M481 683L482 687L480 686L481 689L488 689L489 682L488 682L487 688C484.584 686.443 482.526 685.333 485 683L484 685L486 682L481 683z"/>
<path style="fill:#c9a07c; stroke:none;" d="M487 682L488 683L487 682z"/>
<path style="fill:#9e9fa9; stroke:none;" d="M491 682L491 684L493 682L491 682M494 686L495 686L496 683L497 683L498 689L499 689L499 682L494 686M500 682L500 683L502 686L503 686L503 683L504 683L504 686C504.688 682.954 502.758 682.451 500 682z"/>
<path style="fill:#c9a07c; stroke:none;" d="M506 682L507 683L506 682z"/>
<path style="fill:#9e9fa9; stroke:none;" d="M506 683L506 684L511 683L506 683M512 682L512 683L512 684L517 684L514 689L518 682L512 682M523 682L525 686L526 686L523 682M526 684L529 684L527 682L526 684M531 682L529 686L531 687L532 687L531 682M533 684L536 683L533 684z"/>
<path style="fill:#64636c; stroke:none;" d="M533 684L533 685L538 684L537 689L540 684L533 684z"/>
<path style="fill:#9e9fa9; stroke:none;" d="M537 682L540 684L537 682M542.667 682.333L543.333 682.667L542.667 682.333z"/>
<path style="fill:#64636c; stroke:none;" d="M542 683L542 684L547 684L542 683z"/>
<path style="fill:#9e9fa9; stroke:none;" d="M545.667 682.333L546.333 682.667L545.667 682.333M547 683L546 689L549 689L550 689L553 683L553 684L551 684L551 685L555 685C552.357 679.713 549.021 683.505 547 683z"/>
<path style="fill:#c9a07c; stroke:none;" d="M553 682L554 683L553 682M618 682L619 683L618 682M356 683L356 684C357.96 684.653 358.554 685 356 685L356 686L359 685L359 684L356 683z"/>
<path style="fill:#64636c; stroke:none;" d="M447 683L447 684L448 689L449 689L450 683L447 683M453 683L453 689L454 689L453 683M457 683L458 684L457 683M460 683L460 689L465 689L465 684L460 683M467 683L468 687L469 687L467 683z"/>
<path style="fill:#c9a07c; stroke:none;" d="M471 683L472 684L471 683z"/>
<path style="fill:#64636c; stroke:none;" d="M473 683C472.29 686.057 472.331 687.268 475 689L473 683M482 685L485 683L482 685M488.333 683.667L488.667 684.333L488.333 683.667M492 683L491 688L493 688L492 683z"/>
<path style="fill:#c9a07c; stroke:none;" d="M494 683L495 684L494 683z"/>
<path style="fill:#64636c; stroke:none;" d="M496 683L495 689L498 689L496 683M500 683L500 689L504 689L504 683L503 683L501 687L502 683L500 683M507 683L507 689L511 689L511 688L508 687L508 685L511 684L507 683M513 683L514 688L515 688L517 684L513 683M523 683L524 688C527.33 686.89 529.891 685.435 529 689L530 689L531 685L528 683L527 683L525 686L523 683M531.333 683.667L531.667 684.333L531.333 683.667z"/>
<path style="fill:#c9a07c; stroke:none;" d="M532 683L533 684L532 683M541 683L542 684L541 683z"/>
<path style="fill:#64636c; stroke:none;" d="M550 683C550.013 686.194 549.597 688.271 553 689L553 688L553 684L550 683z"/>
<path style="fill:#9e9fa9; stroke:none;" d="M356.667 684.333L357.333 684.667L356.667 684.333z"/>
<path style="fill:#58473c; stroke:none;" d="M448 684L449 685L448 684M457 684L457 689L458 689L457 684z"/>
<path style="fill:#c9a07c; stroke:none;" d="M459.333 684.667L459.667 685.333L459.333 684.667z"/>
<path style="fill:#58473c; stroke:none;" d="M467 684L469 689L467 684M473 684L474 685L473 684z"/>
<path style="fill:#c9a07c; stroke:none;" d="M506 684L507 685L506 684z"/>
<path style="fill:#9e9fa9; stroke:none;" d="M509 684L508 685L510 688L511 688L509 684z"/>
<path style="fill:#58473c; stroke:none;" d="M510 684L511 685L510 684z"/>
<path style="fill:#c9a07c; stroke:none;" d="M512 684L513 685L512 684z"/>
<path style="fill:#9e9fa9; stroke:none;" d="M534 685L534 687L535 688L537 688L538 684L534 685M541 684L543 689L541 684z"/>
<path style="fill:#58473c; stroke:none;" d="M542 684L543 685L542 684z"/>
<path style="fill:#9e9fa9; stroke:none;" d="M543 684L544 685L543 684z"/>
<path style="fill:#c9a07c; stroke:none;" d="M544 684L545 685L544 684z"/>
<path style="fill:#9e9fa9; stroke:none;" d="M545 684L546 685L545 684z"/>
<path style="fill:#58473c; stroke:none;" d="M546 684L547 685L546 684z"/>
<path style="fill:#64636c; stroke:none;" d="M553 684L555 687L553 684z"/>
<path style="fill:#c9a07c; stroke:none;" d="M600 684L601 685L600 684M609 684L610 685L609 684z"/>
<path style="fill:#58473c; stroke:none;" d="M453.333 685.667L453.667 686.333L453.333 685.667z"/>
<path style="fill:#64636c; stroke:none;" d="M456.333 685.667L456.667 686.333L456.333 685.667z"/>
<path style="fill:#9e9fa9; stroke:none;" d="M462 685L463 686L462 685z"/>
<path style="fill:#c9a07c; stroke:none;" d="M475 685L476 686L475 685M480 685L481 686L480 685z"/>
<path style="fill:#64636c; stroke:none;" d="M481.333 685.667L481.667 686.333L481.333 685.667z"/>
<path style="fill:#58473c; stroke:none;" d="M488 685L488 688L489 688L488 685z"/>
<path style="fill:#9e9fa9; stroke:none;" d="M489 685L491 687L491 685L489 685z"/>
<path style="fill:#c9a07c; stroke:none;" d="M498 685L499 686L498 685z"/>
<path style="fill:#9e9fa9; stroke:none;" d="M506 685L504 688L504 689C506.649 688.432 507.355 687.412 506 685z"/>
<path style="fill:#64636c; stroke:none;" d="M510 685L511 686L510 685z"/>
<path style="fill:#9e9fa9; stroke:none;" d="M513 685L514 686L513 685z"/>
<path style="fill:#58473c; stroke:none;" d="M533 685L535 688L533 685z"/>
<path style="fill:#f2f1f1; stroke:none;" d="M535 685L535 687L537 687L537 685L535 685z"/>
<path style="fill:#64636c; stroke:none;" d="M541 685L543 689L544 689L541 685z"/>
<path style="fill:#f2f1f1; stroke:none;" d="M543 685L543 687L546 687L546 685L543 685z"/>
<path style="fill:#64636c; stroke:none;" d="M546 685L545 688L546 685z"/>
<path style="fill:#f2f1f1; stroke:none;" d="M551 685L551 687L553 687L553 685L551 685z"/>
<path style="fill:#c9a07c; stroke:none;" d="M590 685L591 686L590 685z"/>
<path style="fill:#9e9fa9; stroke:none;" d="M591 685L592 686L591 685M595.667 685.333L596.333 685.667L595.667 685.333M600 685L601 686L600 685z"/>
<path style="fill:#c9a07c; stroke:none;" d="M604 685L605 686L604 685z"/>
<path style="fill:#9e9fa9; stroke:none;" d="M605 685L606 686L605 685M609 685L610 686L609 685z"/>
<path style="fill:#c9a07c; stroke:none;" d="M613 685L614 686L613 685z"/>
<path style="fill:#9e9fa9; stroke:none;" d="M614 685L615 686L614 685z"/>
<path style="fill:#c9a07c; stroke:none;" d="M617 685L618 686L617 685M619 685L619 689L620 689L619 685z"/>
<path style="fill:#f2f1f1; stroke:none;" d="M459 686L460 687L459 686z"/>
<path style="fill:#58473c; stroke:none;" d="M461.667 686.333L462.333 686.667L461.667 686.333z"/>
<path style="fill:#9e9fa9; stroke:none;" d="M464 686L465 687L464 686z"/>
<path style="fill:#64636c; stroke:none;" d="M489 686L490 687L489 686z"/>
<path style="fill:#c9a07c; stroke:none;" d="M494 686L495 687L494 686z"/>
<path style="fill:#58473c; stroke:none;" d="M501.667 686.333L502.333 686.667L501.667 686.333M508.667 686.333L509.333 686.667L508.667 686.333z"/>
<path style="fill:#9e9fa9; stroke:none;" d="M523 686L524 687L523 686M527 686L524 688L524 689L529 689L527 686M358 687L359 688L358 687z"/>
<path style="fill:#c9a07c; stroke:none;" d="M459.333 687.667L459.667 688.333L459.333 687.667M464 687L465 688L464 687z"/>
<path style="fill:#64636c; stroke:none;" d="M482 687L482 689L484 689L482 687z"/>
<path style="fill:#9e9fa9; stroke:none;" d="M494.333 687.667L494.667 688.333L494.333 687.667z"/>
<path style="fill:#58473c; stroke:none;" d="M525 687L526 688L525 687M529 687L530 688L529 687z"/>
<path style="fill:#64636c; stroke:none;" d="M533 687L534 688L533 687z"/>
<path style="fill:#9e9fa9; stroke:none;" d="M539 687L540 688L539 687z"/>
<path style="fill:#58473c; stroke:none;" d="M542 687L543 688L542 687z"/>
<path style="fill:#9e9fa9; stroke:none;" d="M544 687L545 688L544 687z"/>
<path style="fill:#58473c; stroke:none;" d="M546 687L547 688L546 687z"/>
<path style="fill:#9e9fa9; stroke:none;" d="M551 687L551 688L554 689L551 687z"/>
<path style="fill:#58473c; stroke:none;" d="M553 687L554 688L553 687z"/>
<path style="fill:#c9a07c; stroke:none;" d="M356 688L357 689L356 688z"/>
<path style="fill:#9e9fa9; stroke:none;" d="M461 688L461 689L464 689L461 688z"/>
<path style="fill:#64636c; stroke:none;" d="M469 688L470 689L469 688z"/>
<path style="fill:#58473c; stroke:none;" d="M484 688L485 689L484 688z"/>
<path style="fill:#64636c; stroke:none;" d="M485 688L486 689L485 688M488 688L489 689L488 688z"/>
<path style="fill:#9e9fa9; stroke:none;" d="M491.667 688.333L492.333 688.667L491.667 688.333z"/>
<path style="fill:#58473c; stroke:none;" d="M496 688L497 689L496 688z"/>
<path style="fill:#9e9fa9; stroke:none;" d="M501 688L502 689L501 688M508.667 688.333L509.333 688.667L508.667 688.333M530 688L531 689L530 688z"/>
<path style="fill:#64636c; stroke:none;" d="M534.667 688.333L535.333 688.667L534.667 688.333z"/>
<path style="fill:#58473c; stroke:none;" d="M536 688L537 689L536 688z"/>
<path style="fill:#9e9fa9; stroke:none;" d="M538 688L539 689L538 688z"/>
<path style="fill:#58473c; stroke:none;" d="M544.667 688.333L545.333 688.667L544.667 688.333z"/>
<path style="fill:#c9a07c; stroke:none;" d="M448 689L449 690L448 689M457 689L458 690L457 689z"/>
<path style="fill:#9e9fa9; stroke:none;" d="M464 689L465 690L464 689z"/>
<path style="fill:#c9a07c; stroke:none;" d="M475 689L476 690L475 689z"/>
<path style="fill:#9e9fa9; stroke:none;" d="M483.667 689.333L484.333 689.667L483.667 689.333z"/>
<path style="fill:#c9a07c; stroke:none;" d="M485 689L486 690L485 689M488 689L489 690L488 689z"/>
<path style="fill:#9e9fa9; stroke:none;" d="M590.667 689.333L591.333 689.667L590.667 689.333z"/>
<path style="fill:#c9a07c; stroke:none;" d="M592 689L593 690L592 689z"/>
<path style="fill:#9e9fa9; stroke:none;" d="M595.667 689.333L596.333 689.667L595.667 689.333M599.667 689.333L600.333 689.667L599.667 689.333M604.667 689.333L605.333 689.667L604.667 689.333z"/>
<path style="fill:#c9a07c; stroke:none;" d="M606 689L607 690L606 689z"/>
<path style="fill:#9e9fa9; stroke:none;" d="M609 689L610 690L609 689z"/>
<path style="fill:#c9a07c; stroke:none;" d="M610 689L611 690L610 689z"/>
<path style="fill:#9e9fa9; stroke:none;" d="M613.667 689.333L614.333 689.667L613.667 689.333z"/>
<path style="fill:#c9a07c; stroke:none;" d="M356 690L357 693L358 693L359 690L356 690M596 690L597 691L596 690M600 690L601 691L600 690M609 690L610 691L609 690z"/>
<path style="fill:#9e9fa9; stroke:none;" d="M356 691L356 694L357 694L356 691M358 691L358 694L359 694L358 691z"/>
<path style="fill:#c9a07c; stroke:none;" d="M586 691L587 692L586 691M619 692L619 696L620 696L619 692z"/>
<path style="fill:#9e9fa9; stroke:none;" d="M596.333 693.667L596.667 694.333L596.333 693.667M600.333 693.667L600.667 694.333L600.333 693.667z"/>
<path style="fill:#c9a07c; stroke:none;" d="M605.333 693.667L605.667 694.333L605.333 693.667z"/>
<path style="fill:#9e9fa9; stroke:none;" d="M609.333 693.667L609.667 694.333L609.333 693.667z"/>
<path style="fill:#c9a07c; stroke:none;" d="M356 694L356 697L357 697L356 694M358 694L358 697L359 697L358 694M591 694L592 695L591 694M613.667 694.333L614.333 694.667L613.667 694.333z"/>
<path style="fill:#9e9fa9; stroke:none;" d="M356 697L356 703L357 703L359 699L356 697M488 697L488 711L489 711L488 697z"/>
<path style="fill:#64636c; stroke:none;" d="M489.667 697.333L490.333 697.667L489.667 697.333z"/>
<path style="fill:#9e9fa9; stroke:none;" d="M491 697L491 700L492 700L491 697M442.667 698.333L443.333 698.667L442.667 698.333z"/>
<path style="fill:#64636c; stroke:none;" d="M444 698L444 699L447 699L444 698z"/>
<path style="fill:#9e9fa9; stroke:none;" d="M447 698L447 699L451 702L452 702L447 698z"/>
<path style="fill:#58473c; stroke:none;" d="M489 698L489 711L491 711L491 698L489 698z"/>
<path style="fill:#9e9fa9; stroke:none;" d="M507 712L511 712L511 711L508 711L508 699L515 699C505.71 695.144 507 706.052 507 712z"/>
<path style="fill:#c9a07c; stroke:none;" d="M515 698L516 699L515 698M590 698L591 699L590 698z"/>
<path style="fill:#9e9fa9; stroke:none;" d="M596.333 698.667L596.667 699.333L596.333 698.667M600.333 698.667L600.667 699.333L600.333 698.667z"/>
<path style="fill:#c9a07c; stroke:none;" d="M604 698L605 699L604 698z"/>
<path style="fill:#9e9fa9; stroke:none;" d="M605 698L604 700L606 700L605 698M609.333 698.667L609.667 699.333L609.333 698.667z"/>
<path style="fill:#c9a07c; stroke:none;" d="M613 698L615 700L615 698L613 698M357 699L358 700L357 699z"/>
<path style="fill:#64636c; stroke:none;" d="M441 699L438 707L439 707L441 699z"/>
<path style="fill:#58473c; stroke:none;" d="M452 706L446 705L449 708L449 709C439.698 710.519 440.025 699.555 450 702C440.682 687.629 434.48 721.293 449.684 709.607C450.952 708.633 451.327 707.365 452 706M508 699L509 711C514.383 705.038 521.093 699.119 508 699z"/>
<path style="fill:#64636c; stroke:none;" d="M515 699L516 700L515 699z"/>
<path style="fill:#9e9fa9; stroke:none;" d="M516 699L517 700L516 699M590.667 699.333L591.333 699.667L590.667 699.333z"/>
<path style="fill:#c9a07c; stroke:none;" d="M595 699L596 700L595 699z"/>
<path style="fill:#9e9fa9; stroke:none;" d="M613 699L614 700L613 699M439 700L440 701L439 700z"/>
<path style="fill:#64636c; stroke:none;" d="M444 700L444 701L448 702L448 701L444 700M450.333 700.667L450.667 701.333L450.333 700.667M491 700L492 701L491 700M511 700C510.453 703.56 511.51 704.419 515 705L515 701L514 701L511 704L513 701L511 700z"/>
<path style="fill:#9e9fa9; stroke:none;" d="M517 700L518 701L517 700M438.333 701.667L438.667 702.333L438.333 701.667M443 701L444 702L443 701z"/>
<path style="fill:#c9a07c; stroke:none;" d="M444 701L445 702L444 701z"/>
<path style="fill:#9e9fa9; stroke:none;" d="M446 701L447 702L446 701M491 701L494 703L494 702L491 701z"/>
<path style="fill:#f2f1f1; stroke:none;" d="M511 701L511 704L514 703L514 702L511 701z"/>
<path style="fill:#9e9fa9; stroke:none;" d="M513 701L514 702L513 701z"/>
<path style="fill:#64636c; stroke:none;" d="M517 701L517 704L518 704L517 701M441 702L444 710L441 702z"/>
<path style="fill:#9e9fa9; stroke:none;" d="M442.333 702.667L442.667 703.333L442.333 702.667M448.667 702.333L449.333 702.667L448.667 702.333z"/>
<path style="fill:#c9a07c; stroke:none;" d="M450 702L451 703L450 702z"/>
<path style="fill:#9e9fa9; stroke:none;" d="M454 702L454 712L455 712L457 703L454 702z"/>
<path style="fill:#c9a07c; stroke:none;" d="M458 702L459 703L458 702z"/>
<path style="fill:#9e9fa9; stroke:none;" d="M459 702L459 703L459 705L459 706L462 705L462 703L459 702M463 705L473 703L472 712L474 702L463 705M476 702L476 703L484 703L476 702z"/>
<path style="fill:#c9a07c; stroke:none;" d="M484 702L486 704L484 702z"/>
<path style="fill:#64636c; stroke:none;" d="M494 702L494 703L497 706L498 706L494 702z"/>
<path style="fill:#9e9fa9; stroke:none;" d="M496 702L497 703L496 702M521 702L520 704L521 702z"/>
<path style="fill:#64636c; stroke:none;" d="M520 705L525 703L520 705z"/>
<path style="fill:#9e9fa9; stroke:none;" d="M525 702L525 703L530 703L525 702M532 702L533 717L535 717L538 712L538 711C534.946 711.654 535.064 713.007 535 716L533 716L533 703L537 703L532 702z"/>
<path style="fill:#64636c; stroke:none;" d="M537 702L537 703L540 703L537 702z"/>
<path style="fill:#9e9fa9; stroke:none;" d="M540 702L541 703L540 702z"/>
<path style="fill:#c9a07c; stroke:none;" d="M541 702L543 704L541 702z"/>
<path style="fill:#9e9fa9; stroke:none;" d="M545 704L548 703L545 704z"/>
<path style="fill:#64636c; stroke:none;" d="M548 704L546 703L545 707L546 707L546 704L547 704L547 709L548 709L552 705L548 706L554 705C551.937 702.89 550.228 701.583 548 704z"/>
<path style="fill:#9e9fa9; stroke:none;" d="M552 702L553 703L552 702M556 702L556 712L560 707L559 707L559 711L557 711L556 702z"/>
<path style="fill:#64636c; stroke:none;" d="M557 702L558 703L557 702z"/>
<path style="fill:#9e9fa9; stroke:none;" d="M558 702L558 703L562 703L558 702z"/>
<path style="fill:#64636c; stroke:none;" d="M562 702L563 703L562 702z"/>
<path style="fill:#9e9fa9; stroke:none;" d="M563 702L563 705L564 705L563 702z"/>
<path style="fill:#c9a07c; stroke:none;" d="M596 702L595 704L596 702M600 702L601 703L600 702M605 702L606 703L605 702z"/>
<path style="fill:#9e9fa9; stroke:none;" d="M609.333 702.667L609.667 703.333L609.333 702.667z"/>
<path style="fill:#c9a07c; stroke:none;" d="M356 703L357 704L356 703M358 703L359 704L358 703z"/>
<path style="fill:#64636c; stroke:none;" d="M455 703L456 704L455 703z"/>
<path style="fill:#58473c; stroke:none;" d="M456 703L455 711L457 711L460 703L456 703z"/>
<path style="fill:#64636c; stroke:none;" d="M457.667 703.333L458.333 703.667L457.667 703.333M460 703L459 705L461 705L460 703z"/>
<path style="fill:#58473c; stroke:none;" d="M473 711L472 703C460.947 703.712 462.614 710.992 473 711z"/>
<path style="fill:#64636c; stroke:none;" d="M469.667 703.333L470.333 703.667L469.667 703.333M472 703L472 710L473 710L472 703z"/>
<path style="fill:#c9a07c; stroke:none;" d="M475 703L475 711L476 711L475 703z"/>
<path style="fill:#64636c; stroke:none;" d="M476 703L476 707L477 707L476 703z"/>
<path style="fill:#58473c; stroke:none;" d="M477 703L477 716L478 716L478 711C488.129 710.879 485.697 703.669 477 703z"/>
<path style="fill:#64636c; stroke:none;" d="M478.667 703.333L479.333 703.667L478.667 703.333M483.667 703.333L484.333 703.667L483.667 703.333M491 703L491 707L492 707L496 706L496 705L491 703z"/>
<path style="fill:#58473c; stroke:none;" d="M493 703L493 704L498 708L493 703z"/>
<path style="fill:#9e9fa9; stroke:none;" d="M497 703L498 704L497 703M513 703L514 704L513 703z"/>
<path style="fill:#58473c; stroke:none;" d="M529 711L529 703C519.051 703.715 518.454 710.963 529 711z"/>
<path style="fill:#64636c; stroke:none;" d="M526 703L527 704L526 703M529 703L529 711L530 711L529 703z"/>
<path style="fill:#58473c; stroke:none;" d="M533 703L533 715L535 715L535 711C545.58 710.653 541.103 703.598 533 703z"/>
<path style="fill:#64636c; stroke:none;" d="M535 703L536 704L535 703M541 703L542 704L541 703z"/>
<path style="fill:#58473c; stroke:none;" d="M547 703L548 704L547 703M551 703L554 707L551 703z"/>
<path style="fill:#9e9fa9; stroke:none;" d="M553 703L554 704L553 703z"/>
<path style="fill:#58473c; stroke:none;" d="M557 703L557 711C559.697 708.677 559.915 705.123 557 703z"/>
<path style="fill:#64636c; stroke:none;" d="M559 703L559 707L560 707L563 705L563 704L559 703z"/>
<path style="fill:#58473c; stroke:none;" d="M561.667 703.333L562.333 703.667L561.667 703.333z"/>
<path style="fill:#9e9fa9; stroke:none;" d="M590.667 703.333L591.333 703.667L590.667 703.333M596 703L597 704L596 703M600 703L601 704L600 703M604.667 703.333L605.333 703.667L604.667 703.333z"/>
<path style="fill:#c9a07c; stroke:none;" d="M613.667 703.333L614.333 703.667L613.667 703.333z"/>
<path style="fill:#9e9fa9; stroke:none;" d="M445 704L445 707L446 707L445 704z"/>
<path style="fill:#64636c; stroke:none;" d="M446 704L446 705L452 706L446 704z"/>
<path style="fill:#9e9fa9; stroke:none;" d="M452 704L452 708L453 708L452 704z"/>
<path style="fill:#64636c; stroke:none;" d="M466 710L467 710C466.928 707.122 467.166 706.55 470 706C466.505 704.024 465.516 706.717 466 710M480 704L480 705L482 710L483 710C483.499 706.686 482.941 705.62 480 704M485 704L485 707L486 707L485 704z"/>
<path style="fill:#c9a07c; stroke:none;" d="M498 704L499 705L498 704z"/>
<path style="fill:#9e9fa9; stroke:none;" d="M517 704L516 707L517 704z"/>
<path style="fill:#c9a07c; stroke:none;" d="M519 704L520 705L519 704z"/>
<path style="fill:#64636c; stroke:none;" d="M522 705L522 706L527 706L525 710C528.119 706.646 526.246 704.377 522 705M536 704L535 706L536 704z"/>
<path style="fill:#9e9fa9; stroke:none;" d="M536 709L537 709L537 705L539 706L540 706C536.99 704.526 535.937 705.902 536 709z"/>
<path style="fill:#64636c; stroke:none;" d="M538.667 704.333L539.333 704.667L538.667 704.333M542 704L542 709L543 709L542 704z"/>
<path style="fill:#58473c; stroke:none;" d="M546 704C545.338 709.935 548.534 711.552 554 710L554 709C549.217 709.534 548.132 707.976 546 704z"/>
<path style="fill:#9e9fa9; stroke:none;" d="M548 704L552 705L552 704L548 704z"/>
<path style="fill:#f2f1f1; stroke:none;" d="M549.667 704.333L550.333 704.667L549.667 704.333z"/>
<path style="fill:#64636c; stroke:none;" d="M557.333 704.667L557.667 705.333L557.333 704.667z"/>
<path style="fill:#c9a07c; stroke:none;" d="M356 705L357 706L356 705z"/>
<path style="fill:#64636c; stroke:none;" d="M458 705L457 708L458 708L458 705z"/>
<path style="fill:#c9a07c; stroke:none;" d="M461.667 705.333L462.333 705.667L461.667 705.333z"/>
<path style="fill:#64636c; stroke:none;" d="M463 705L464 706L463 705z"/>
<path style="fill:#9e9fa9; stroke:none;" d="M466 706L466 707L470 707L466 706M479 705L479 706L483 707L483 706L479 705M486 705L485 711L486 711L486 705M492 705L493 706L492 705z"/>
<path style="fill:#c9a07c; stroke:none;" d="M493 705L494 709L495 709L493 705z"/>
<path style="fill:#9e9fa9; stroke:none;" d="M494 705L495 706L494 705M498 705L498 711L496 711L496 706L495 706L495 712L499 712L498 705z"/>
<path style="fill:#64636c; stroke:none;" d="M516 705L517 706L516 705z"/>
<path style="fill:#9e9fa9; stroke:none;" d="M519 705L519 709L520 709L519 705M523 705L522 708L523 708L523 705z"/>
<path style="fill:#c9a07c; stroke:none;" d="M524 705L525 706L524 705z"/>
<path style="fill:#9e9fa9; stroke:none;" d="M525 705L526 708L527 708L525 705z"/>
<path style="fill:#c9a07c; stroke:none;" d="M537 705L538 706L537 705z"/>
<path style="fill:#64636c; stroke:none;" d="M540 705L540 709L536 709L536 710C539.22 709.465 541.124 708.428 540 705z"/>
<path style="fill:#9e9fa9; stroke:none;" d="M544 705L544 709L545 709L544 705M554 705L548 707L548 708C550.535 707.99 555.356 708.598 554 705M560.667 705.333L561.333 705.667L560.667 705.333z"/>
<path style="fill:#c9a07c; stroke:none;" d="M562 705L563 706L562 705z"/>
<path style="fill:#9e9fa9; stroke:none;" d="M356 706L356 709L357 709L356 706z"/>
<path style="fill:#c9a07c; stroke:none;" d="M358 706L357 709L358 709L358 706M458 706L459 707L458 706z"/>
<path style="fill:#9e9fa9; stroke:none;" d="M462 706L462 709L463 709L462 706z"/>
<path style="fill:#f2f1f1; stroke:none;" d="M466 707L466 708L469 709L469 706L466 707z"/>
<path style="fill:#64636c; stroke:none;" d="M478 706L479 710L480 710L478 706z"/>
<path style="fill:#c9a07c; stroke:none;" d="M479 706L480 707L479 706z"/>
<path style="fill:#f2f1f1; stroke:none;" d="M480 706L479 707L479 708L479 709L482 706L480 706z"/>
<path style="fill:#64636c; stroke:none;" d="M514.667 706.333L515.333 706.667L514.667 706.333z"/>
<path style="fill:#f2f1f1; stroke:none;" d="M523 706L526 709L523 706M536 706L539 709L536 706z"/>
<path style="fill:#c9a07c; stroke:none;" d="M539.333 706.667L539.667 707.333L539.333 706.667M560 706L561 707L560 706z"/>
<path style="fill:#9e9fa9; stroke:none;" d="M358 707L358 710L359 710L358 707M438 707L440 710L438 707M442 707L443 708L442 707M446 707L444 709L444 710L448 707L446 707z"/>
<path style="fill:#c9a07c; stroke:none;" d="M469 707L470 708L469 707z"/>
<path style="fill:#64636c; stroke:none;" d="M470 707L471 708L470 707z"/>
<path style="fill:#c9a07c; stroke:none;" d="M482 707L483 708L482 707z"/>
<path style="fill:#9e9fa9; stroke:none;" d="M491 707L491 712L492 712L491 707M511 707L511 708L514 708L511 707z"/>
<path style="fill:#c9a07c; stroke:none;" d="M514 707L515 708L514 707M530 707L531 708L530 707z"/>
<path style="fill:#64636c; stroke:none;" d="M557 707L557 710L558 710L557 707z"/>
<path style="fill:#9e9fa9; stroke:none;" d="M600.333 707.667L600.667 708.333L600.333 707.667z"/>
<path style="fill:#c9a07c; stroke:none;" d="M605 707L606 708L605 707z"/>
<path style="fill:#9e9fa9; stroke:none;" d="M609.333 707.667L609.667 708.333L609.333 707.667z"/>
<path style="fill:#64636c; stroke:none;" d="M439 708L440 709L439 708z"/>
<path style="fill:#9e9fa9; stroke:none;" d="M443 708L444 709L443 708z"/>
<path style="fill:#64636c; stroke:none;" d="M448 708L449 709L448 708M451 708L449 711L451 708z"/>
<path style="fill:#9e9fa9; stroke:none;" d="M457 708L457 712L458 712L457 708z"/>
<path style="fill:#c9a07c; stroke:none;" d="M466 708L467 709L466 708z"/>
<path style="fill:#9e9fa9; stroke:none;" d="M469 708L467 709L467 710L469 708M482 708L483 709L482 708z"/>
<path style="fill:#64636c; stroke:none;" d="M496 708L498 710L498 708L496 708M508 708L508 711L509 711L508 708M510 708L510 711L511 711L510 708M522 708L524 710L522 708z"/>
<path style="fill:#c9a07c; stroke:none;" d="M523 708L524 709L523 708z"/>
<path style="fill:#64636c; stroke:none;" d="M535 708L536 709L535 708z"/>
<path style="fill:#9e9fa9; stroke:none;" d="M539 708L540 709L539 708z"/>
<path style="fill:#f2f1f1; stroke:none;" d="M548 708L548 709L553 709L548 708z"/>
<path style="fill:#c9a07c; stroke:none;" d="M553 708L554 709L553 708M590 708L591 709L590 708z"/>
<path style="fill:#9e9fa9; stroke:none;" d="M591 708L592 709L591 708M595.667 708.333L596.333 708.667L595.667 708.333M604.667 708.333L605.333 708.667L604.667 708.333z"/>
<path style="fill:#c9a07c; stroke:none;" d="M613.667 708.333L614.333 708.667L613.667 708.333z"/>
<path style="fill:#64636c; stroke:none;" d="M447 709L448 710L447 709z"/>
<path style="fill:#9e9fa9; stroke:none;" d="M451 709L452 710L451 709z"/>
<path style="fill:#64636c; stroke:none;" d="M463 709L464 710L463 709M469 709L470 710L469 709z"/>
<path style="fill:#9e9fa9; stroke:none;" d="M480.667 709.333L481.333 709.667L480.667 709.333z"/>
<path style="fill:#64636c; stroke:none;" d="M485 709L486 710L485 709z"/>
<path style="fill:#58473c; stroke:none;" d="M496 709L496 711L498 711L496 709z"/>
<path style="fill:#c9a07c; stroke:none;" d="M519 709L520 710L519 709z"/>
<path style="fill:#64636c; stroke:none;" d="M520 709L521 710L520 709z"/>
<path style="fill:#9e9fa9; stroke:none;" d="M524 709L525 710L524 709M542 709L543 710L542 709z"/>
<path style="fill:#64636c; stroke:none;" d="M545 709L547 711L545 709z"/>
<path style="fill:#9e9fa9; stroke:none;" d="M548 709L548 710L551 710L548 709z"/>
<path style="fill:#64636c; stroke:none;" d="M551 709L552 710L551 709z"/>
<path style="fill:#9e9fa9; stroke:none;" d="M554 709L555 710L554 709z"/>
<path style="fill:#c9a07c; stroke:none;" d="M358 710L359 711L358 710z"/>
<path style="fill:#9e9fa9; stroke:none;" d="M440 710L442 712L440 710z"/>
<path style="fill:#64636c; stroke:none;" d="M441 710L442 711L441 710z"/>
<path style="fill:#9e9fa9; stroke:none;" d="M450 710L451 711L450 710M463 710L464 711L463 710z"/>
<path style="fill:#c9a07c; stroke:none;" d="M494 710L495 711L494 710z"/>
<path style="fill:#9e9fa9; stroke:none;" d="M520 710L521 711L520 710z"/>
<path style="fill:#64636c; stroke:none;" d="M541 710L542 711L541 710z"/>
<path style="fill:#9e9fa9; stroke:none;" d="M545 710L546 711L545 710M553 710L554 711L553 710M356 711L356 717L359 717L359 714L357 715L356 711z"/>
<path style="fill:#64636c; stroke:none;" d="M442.667 711.333L443.333 711.667L442.667 711.333M447 711L448 712L447 711z"/>
<path style="fill:#9e9fa9; stroke:none;" d="M448 711L449 712L448 711z"/>
<path style="fill:#64636c; stroke:none;" d="M455.667 711.333L456.333 711.667L455.667 711.333z"/>
<path style="fill:#9e9fa9; stroke:none;" d="M464.667 711.333L465.333 711.667L464.667 711.333z"/>
<path style="fill:#64636c; stroke:none;" d="M466.667 711.333L467.333 711.667L466.667 711.333z"/>
<path style="fill:#9e9fa9; stroke:none;" d="M468.667 711.333L469.333 711.667L468.667 711.333z"/>
<path style="fill:#64636c; stroke:none;" d="M470.667 711.333L471.333 711.667L470.667 711.333M478 711L478 715L479 715L478 711z"/>
<path style="fill:#9e9fa9; stroke:none;" d="M479 711L480 712L479 711z"/>
<path style="fill:#64636c; stroke:none;" d="M480 711L480 712L484 712L480 711z"/>
<path style="fill:#9e9fa9; stroke:none;" d="M484 711L485 712L484 711z"/>
<path style="fill:#c9a07c; stroke:none;" d="M488 711L489 712L488 711z"/>
<path style="fill:#64636c; stroke:none;" d="M489.667 711.333L490.333 711.667L489.667 711.333z"/>
<path style="fill:#9e9fa9; stroke:none;" d="M522 711L523 712L522 711z"/>
<path style="fill:#64636c; stroke:none;" d="M523.667 711.333L524.333 711.667L523.667 711.333z"/>
<path style="fill:#9e9fa9; stroke:none;" d="M525 711L525 712L530 712L525 711z"/>
<path style="fill:#64636c; stroke:none;" d="M538 711L539 712L538 711z"/>
<path style="fill:#9e9fa9; stroke:none;" d="M539.667 711.333L540.333 711.667L539.667 711.333M547.667 711.333L548.333 711.667L547.667 711.333z"/>
<path style="fill:#64636c; stroke:none;" d="M549.667 711.333L550.333 711.667L549.667 711.333z"/>
<path style="fill:#9e9fa9; stroke:none;" d="M551.667 711.333L552.333 711.667L551.667 711.333z"/>
<path style="fill:#c9a07c; stroke:none;" d="M600 711L601 712L600 711M609 711L611 713L609 711M355 712L356 713L355 712z"/>
<path style="fill:#9e9fa9; stroke:none;" d="M444 712L444 713L447 713L444 712z"/>
<path style="fill:#c9a07c; stroke:none;" d="M467 712L468 713L467 712z"/>
<path style="fill:#9e9fa9; stroke:none;" d="M475 712L476 713L475 712z"/>
<path style="fill:#64636c; stroke:none;" d="M476.333 712.667L476.667 713.333L476.333 712.667z"/>
<path style="fill:#9e9fa9; stroke:none;" d="M590.667 712.333L591.333 712.667L590.667 712.333M595.667 712.333L596.333 712.667L595.667 712.333M599.667 712.333L600.333 712.667L599.667 712.333M604.667 712.333L605.333 712.667L604.667 712.333M609 712L610 713L609 712M613.667 712.333L614.333 712.667L613.667 712.333z"/>
<path style="fill:#c9a07c; stroke:none;" d="M475 713L476 714L475 713M357 714L358 715L357 714z"/>
<path style="fill:#9e9fa9; stroke:none;" d="M475 714L476 715L475 714z"/>
<path style="fill:#64636c; stroke:none;" d="M476 715L477 716L476 715z"/>
<path style="fill:#9e9fa9; stroke:none;" d="M478 715L476 716L476 717L478 715z"/>
<path style="fill:#64636c; stroke:none;" d="M533.667 715.333L534.333 715.667L533.667 715.333z"/>
<path style="fill:#c9a07c; stroke:none;" d="M357 716L358 717L357 716M595 716L596 717L595 716z"/>
<path style="fill:#9e9fa9; stroke:none;" d="M600.333 716.667L600.667 717.333L600.333 716.667z"/>
<path style="fill:#c9a07c; stroke:none;" d="M605 716L606 717L605 716z"/>
<path style="fill:#9e9fa9; stroke:none;" d="M609.333 716.667L609.667 717.333L609.333 716.667z"/>
<path style="fill:#c9a07c; stroke:none;" d="M613 716L614 717L613 716M356 717L357 718L356 717M358 717L359 718L358 717z"/>
<path style="fill:#9e9fa9; stroke:none;" d="M590.667 717.333L591.333 717.667L590.667 717.333M595.667 717.333L596.333 717.667L595.667 717.333z"/>
<path style="fill:#c9a07c; stroke:none;" d="M599 717L600 718L599 717z"/>
<path style="fill:#9e9fa9; stroke:none;" d="M604.667 717.333L605.333 717.667L604.667 717.333M613.667 717.333L614.333 717.667L613.667 717.333z"/>
<path style="fill:#c9a07c; stroke:none;" d="M356.333 719.667L356.667 720.333L356.333 719.667M358 719L359 720L358 719z"/>
<path style="fill:#9e9fa9; stroke:none;" d="M358 720L359 721L358 720z"/>
<path style="fill:#c9a07c; stroke:none;" d="M358 721L357 723L358 721z"/>
<path style="fill:#9e9fa9; stroke:none;" d="M590.667 721.333L591.333 721.667L590.667 721.333M595.667 721.333L596.333 721.667L595.667 721.333M599.667 721.333L600.333 721.667L599.667 721.333M604.667 721.333L605.333 721.667L604.667 721.333M609 721L610 722L609 721z"/>
<path style="fill:#c9a07c; stroke:none;" d="M610 721L611 722L610 721z"/>
<path style="fill:#9e9fa9; stroke:none;" d="M613.667 721.333L614.333 721.667L613.667 721.333z"/>
<path style="fill:#c9a07c; stroke:none;" d="M617 721L618 722L617 721z"/>
<path style="fill:#9e9fa9; stroke:none;" d="M356 722L356 725L357 725L358 725L359 725L359 722L358 722L356 722M515.667 722.333L516.333 722.667L515.667 722.333z"/>
<path style="fill:#c9a07c; stroke:none;" d="M533 722L534 723L533 722z"/>
<path style="fill:#9e9fa9; stroke:none;" d="M534 722L535 723L534 722M542.667 722.333L543.333 722.667L542.667 722.333M552 722L551 725L547 723L548 730L553 728L552 722M556 722L556 723L559 724L556 722M444 723L442 729L447 730L448 726L447 726L447 729L443 726L446 727L444 723z"/>
<path style="fill:#64636c; stroke:none;" d="M445 723L446 727L443 726L447 729L445 723z"/>
<path style="fill:#9e9fa9; stroke:none;" d="M446 723L447 724L446 723M449 723L449 727L450 727L450 724L454 724L449 723z"/>
<path style="fill:#64636c; stroke:none;" d="M451 723L452 724L451 723z"/>
<path style="fill:#c9a07c; stroke:none;" d="M459 723L460 724L459 723z"/>
<path style="fill:#64636c; stroke:none;" d="M460 723L460 729L465 726L465 724L460 723z"/>
<path style="fill:#9e9fa9; stroke:none;" d="M463 723L464 724L463 723M467 723L468 724L467 723z"/>
<path style="fill:#64636c; stroke:none;" d="M468 723L469 724L468 723M479 726L477 729C474.793 726.819 474.82 725.627 478 725C472.706 718.999 473.807 735.125 479 726z"/>
<path style="fill:#9e9fa9; stroke:none;" d="M478 723L475 724L477 729L478 723M480 723L480 730L485 730L485 723L482 724L483 729L480 723z"/>
<path style="fill:#64636c; stroke:none;" d="M481 723L483 729L484 724L481 723z"/>
<path style="fill:#9e9fa9; stroke:none;" d="M490 723L490 724L491 728L502 730L500 724L500 729L496 729L497 723L496 723L492 728L495 723L490 723z"/>
<path style="fill:#64636c; stroke:none;" d="M495 723L492 728L495 723z"/>
<path style="fill:#c9a07c; stroke:none;" d="M498 723L499 724L498 723z"/>
<path style="fill:#64636c; stroke:none;" d="M499 723L499 724L502 724L499 723z"/>
<path style="fill:#9e9fa9; stroke:none;" d="M504 723L505 724L504 723z"/>
<path style="fill:#64636c; stroke:none;" d="M505 723L504 729L505 729L506 726L509 728L507 726L505 723z"/>
<path style="fill:#9e9fa9; stroke:none;" d="M506 723L507 724L506 723z"/>
<path style="fill:#64636c; stroke:none;" d="M509 723L510 729L511 729L509 723z"/>
<path style="fill:#9e9fa9; stroke:none;" d="M513 723L514 724L513 723z"/>
<path style="fill:#64636c; stroke:none;" d="M514 729L515 729L514 725L518 724L517 729C522.514 724.934 512.035 720.366 514 729z"/>
<path style="fill:#9e9fa9; stroke:none;" d="M518 723L519 724L518 723M524 723C524.15 727.575 525.033 730.13 530 729L530 728L527 726L526 729L525 729L524 723z"/>
<path style="fill:#64636c; stroke:none;" d="M525 723L525 729L526 729L527 726L529 729C529.128 725.492 528.374 724.093 525 723z"/>
<path style="fill:#9e9fa9; stroke:none;" d="M528 723L529 724L528 723M531 724L531 725L534 725L531 724z"/>
<path style="fill:#58473c; stroke:none;" d="M533.667 723.333L534.333 723.667L533.667 723.333z"/>
<path style="fill:#64636c; stroke:none;" d="M535 723L535 729C537.283 726.978 536.745 725.312 535 723z"/>
<path style="fill:#9e9fa9; stroke:none;" d="M536 723L537 724L536 723M537 724L537 728L544 730L544 729L541 729L541 728L544 728L544 727L540 728L540 724L541 724L544 725L537 724z"/>
<path style="fill:#64636c; stroke:none;" d="M541 723L542 724L541 723z"/>
<path style="fill:#58473c; stroke:none;" d="M542 723L543 724L542 723z"/>
<path style="fill:#64636c; stroke:none;" d="M543 723L541 728L541 729C544.902 728.321 546.615 725.631 543 723z"/>
<path style="fill:#c9a07c; stroke:none;" d="M545 723L546 724L545 723z"/>
<path style="fill:#64636c; stroke:none;" d="M551.333 723.667L551.667 724.333L551.333 723.667M555 723L556 729L559 728L558 723L555 723z"/>
<path style="fill:#58473c; stroke:none;" d="M445 724L446 725L445 724z"/>
<path style="fill:#64636c; stroke:none;" d="M450 724L452 730L451 727L453 729L454 729L454 724L450 724z"/>
<path style="fill:#9e9fa9; stroke:none;" d="M459 724C459.009 726.173 459.559 732.346 462 728L459 724M462 724L461 726L463 726L462 724z"/>
<path style="fill:#58473c; stroke:none;" d="M467.667 724.333L468.333 724.667L467.667 724.333z"/>
<path style="fill:#9e9fa9; stroke:none;" d="M469 724L470 725L469 724M472 724L472 728L473 728L474 724L472 724z"/>
<path style="fill:#64636c; stroke:none;" d="M490 724L490 729L491 729L490 724z"/>
<path style="fill:#58473c; stroke:none;" d="M491.333 724.667L491.667 725.333L491.333 724.667M495 724L496 725L495 724z"/>
<path style="fill:#9e9fa9; stroke:none;" d="M498 724L499 725L498 724z"/>
<path style="fill:#58473c; stroke:none;" d="M499 724L499 728L500 728L499 724M505.333 724.667L505.667 725.333L505.333 724.667z"/>
<path style="fill:#c9a07c; stroke:none;" d="M507 724L508 725L507 724z"/>
<path style="fill:#9e9fa9; stroke:none;" d="M508 724L509 725L508 724z"/>
<path style="fill:#58473c; stroke:none;" d="M509.333 724.667L509.667 725.333L509.333 724.667z"/>
<path style="fill:#9e9fa9; stroke:none;" d="M514 725L514 730L518 730L515 726L518 725L514 725M519 724L520 725L519 724M526 724L527 725L526 724M529 724L529 727L530 727L529 724z"/>
<path style="fill:#58473c; stroke:none;" d="M532 724L533 725L532 724z"/>
<path style="fill:#f2f1f1; stroke:none;" d="M534 724L534 728L535 728L534 724z"/>
<path style="fill:#9e9fa9; stroke:none;" d="M535 724L536 725L535 724z"/>
<path style="fill:#64636c; stroke:none;" d="M540 724L540 728L541 728L540 724z"/>
<path style="fill:#9e9fa9; stroke:none;" d="M545 724L546 725L545 724z"/>
<path style="fill:#64636c; stroke:none;" d="M548 724L548 725L550 726L548 729L549 729C550.301 726.38 550.66 725.432 548 724z"/>
<path style="fill:#9e9fa9; stroke:none;" d="M554 724L555 725L554 724z"/>
<path style="fill:#58473c; stroke:none;" d="M555 724L556 725L555 724z"/>
<path style="fill:#c9a07c; stroke:none;" d="M356 725L357 726L356 725z"/>
<path style="fill:#9e9fa9; stroke:none;" d="M453.333 725.667L453.667 726.333L453.333 725.667z"/>
<path style="fill:#c9a07c; stroke:none;" d="M456 725L457 726L456 725z"/>
<path style="fill:#9e9fa9; stroke:none;" d="M466 725L467 726L466 725z"/>
<path style="fill:#64636c; stroke:none;" d="M466 726L466 729L471 729L471 728L470 726L466 726z"/>
<path style="fill:#f2f1f1; stroke:none;" d="M475 725L475 728L476 728L475 725z"/>
<path style="fill:#c9a07c; stroke:none;" d="M484 725L485 726L484 725M489 725L490 726L489 725M498.333 725.667L498.667 726.333L498.333 725.667z"/>
<path style="fill:#64636c; stroke:none;" d="M500.333 725.667L500.667 726.333L500.333 725.667z"/>
<path style="fill:#9e9fa9; stroke:none;" d="M507 725L508 726L507 725M512.333 725.667L512.667 726.333L512.333 725.667z"/>
<path style="fill:#f2f1f1; stroke:none;" d="M515 725L515 727L518 727L518 725L515 725z"/>
<path style="fill:#64636c; stroke:none;" d="M531 725L531 727L533 727L533 725L531 725z"/>
<path style="fill:#f2f1f1; stroke:none;" d="M542 725L542 727L544 727L544 725L542 725z"/>
<path style="fill:#58473c; stroke:none;" d="M548.667 725.333L549.333 725.667L548.667 725.333z"/>
<path style="fill:#9e9fa9; stroke:none;" d="M558 725L559 726L558 725z"/>
<path style="fill:#c9a07c; stroke:none;" d="M590 725L590 727L592 727L590 725z"/>
<path style="fill:#9e9fa9; stroke:none;" d="M591 725L592 726L591 725M595 725L596 726L595 725z"/>
<path style="fill:#c9a07c; stroke:none;" d="M596 725L597 726L596 725z"/>
<path style="fill:#9e9fa9; stroke:none;" d="M600 725L601 726L600 725M604.667 725.333L605.333 725.667L604.667 725.333M609.333 725.667L609.667 726.333L609.333 725.667M613 725L614 726L613 725z"/>
<path style="fill:#c9a07c; stroke:none;" d="M614 725L615 726L614 725M617 725L618 726L617 725z"/>
<path style="fill:#9e9fa9; stroke:none;" d="M356 726L356 743L357 743L359 730L356 726z"/>
<path style="fill:#c9a07c; stroke:none;" d="M358 726L358 729L359 729L358 726z"/>
<path style="fill:#9e9fa9; stroke:none;" d="M456 726L456 728L458 728L458 726L456 726M464 726L465 727L464 726M468 726L469 727L468 726z"/>
<path style="fill:#58473c; stroke:none;" d="M469.333 726.667L469.667 727.333L469.333 726.667z"/>
<path style="fill:#9e9fa9; stroke:none;" d="M470.333 726.667L470.667 727.333L470.333 726.667M489 726L491 730L489 726z"/>
<path style="fill:#64636c; stroke:none;" d="M496 726L496 729L497 729L496 726z"/>
<path style="fill:#9e9fa9; stroke:none;" d="M503 726L504 730L507 726L506 726L505 729L504 729L503 726M509.333 726.667L509.667 727.333L509.333 726.667z"/>
<path style="fill:#c9a07c; stroke:none;" d="M541 726L542 727L541 726z"/>
<path style="fill:#9e9fa9; stroke:none;" d="M556 726L554 729L558 730L558 729L556 726z"/>
<path style="fill:#c9a07c; stroke:none;" d="M595 726L596 727L595 726M600 726L601 727L600 726M604.667 726.333L605.333 726.667L604.667 726.333z"/>
<path style="fill:#58473c; stroke:none;" d="M446 727L447 728L446 727z"/>
<path style="fill:#9e9fa9; stroke:none;" d="M451 727L454 730L451 727M462.667 727.333L463.333 727.667L462.667 727.333M465 727L467 730L465 727z"/>
<path style="fill:#58473c; stroke:none;" d="M466 727L467 728L466 727z"/>
<path style="fill:#c9a07c; stroke:none;" d="M497 727L498 728L497 727z"/>
<path style="fill:#9e9fa9; stroke:none;" d="M511 727L510 730L511 727M519.333 727.667L519.667 728.333L519.333 727.667M531.333 727.667L531.667 728.333L531.333 727.667z"/>
<path style="fill:#58473c; stroke:none;" d="M532 727L533 728L532 727z"/>
<path style="fill:#9e9fa9; stroke:none;" d="M533 727L536 730L533 727M535 727L536 728L535 727M545.333 727.667L545.667 728.333L545.333 727.667z"/>
<path style="fill:#64636c; stroke:none;" d="M551 727L551 729L553 729L551 727z"/>
<path style="fill:#9e9fa9; stroke:none;" d="M467.667 728.333L468.333 728.667L467.667 728.333z"/>
<path style="fill:#c9a07c; stroke:none;" d="M471 728L472 729L471 728z"/>
<path style="fill:#9e9fa9; stroke:none;" d="M473 728L474 729L473 728M478 728L479 729L478 728z"/>
<path style="fill:#64636c; stroke:none;" d="M499 728L500 729L499 728z"/>
<path style="fill:#9e9fa9; stroke:none;" d="M507.667 728.333L508.333 728.667L507.667 728.333M513 728L514 729L513 728z"/>
<path style="fill:#64636c; stroke:none;" d="M532.667 728.333L533.333 728.667L532.667 728.333z"/>
<path style="fill:#9e9fa9; stroke:none;" d="M558 728L559 729L558 728M449.667 729.333L450.333 729.667L449.667 729.333M469.667 729.333L470.333 729.667L469.667 729.333M474 729L475 730L474 729M477 729L478 730L477 729z"/>
<path style="fill:#c9a07c; stroke:none;" d="M492.667 729.333L493.333 729.667L492.667 729.333M503 729L504 730L503 729M505 729L506 730L505 729z"/>
<path style="fill:#9e9fa9; stroke:none;" d="M552 729L553 730L552 729z"/>
<path style="fill:#c9a07c; stroke:none;" d="M609 729L610 730L609 729M617 729L618 730L617 729M613 731L614 732L613 731M358 732L359 733L358 732M358 737L358 741L359 741L358 737z"/>
<path style="fill:#9e9fa9; stroke:none;" d="M358.333 738.667L358.667 739.333L358.333 738.667M358.333 741.667L358.667 742.333L358.333 741.667z"/>
<path style="fill:#c9a07c; stroke:none;" d="M356 744L358 746L356 744z"/>
<path style="fill:#9e9fa9; stroke:none;" d="M356 745L356 748L357 748L358 748L359 748L359 745L358 745L356 745z"/>
<path style="fill:#c9a07c; stroke:none;" d="M356 748L356 751L357 751L356 748M358 748L358 751L359 751L358 748z"/>
<path style="fill:#9e9fa9; stroke:none;" d="M367 751L633 750L633 748C565.969 748 498.977 749 432 749L384 749C379 749 369.968 746.475 367 751z"/>
<path style="fill:#c9a07c; stroke:none;" d="M372 748L372 749L376 749L372 748M475 748L475 749L483 749L475 748M484 748L485 749L484 748M545 750L545 751L553 751L545 750z"/>
<path style="fill:#9e9fa9; stroke:none;" d="M356 751L356 756L357 756L356 751z"/>
<path style="fill:#c9a07c; stroke:none;" d="M358 752L357 755L358 755L358 752z"/>
<path style="fill:#9e9fa9; stroke:none;" d="M358 753L358 758L359 758L358 753z"/>
<path style="fill:#c9a07c; stroke:none;" d="M358.333 758.667L358.667 759.333L358.333 758.667z"/>
<path style="fill:#9e9fa9; stroke:none;" d="M628 759L622 761L621 761L607 763L608 760L603 761L602 766L620 764L621 764C622.689 767.107 628.956 766.01 632 765L628 759M358 760L358 764L359 764L358 760z"/>
<path style="fill:#c9a07c; stroke:none;" d="M471 760L472 761L471 760z"/>
<path style="fill:#9e9fa9; stroke:none;" d="M470 761L470 767C473.275 765.283 473.849 763.541 473 760L470 761M480 760C479.021 763.674 479.202 765.74 483 767L482 760L480 760M491 760C489.835 763.187 489.133 766.171 493 767L493 766L492 763L494 766C496.212 762.719 494.331 761.226 491 760M500 760L503 763L500 767L504 766L504 762L506 764L506 761L500 760z"/>
<path style="fill:#c9a07c; stroke:none;" d="M501 760L502 761L501 760M504 760L505 761L504 760M509 760L510 761L509 760z"/>
<path style="fill:#9e9fa9; stroke:none;" d="M510 760L510 761L513 761L510 760M516 760L516 766L520 760L516 760M522 760L522 761L523 767L524 767C525.074 763.818 525.39 761.352 522 760z"/>
<path style="fill:#c9a07c; stroke:none;" d="M524 760L525 761L524 760z"/>
<path style="fill:#9e9fa9; stroke:none;" d="M527 764L532 765L531 760L527 764M576 760L578 764L576 766L586 764L587 764L600 766L600 762L597 763L596 760L595 763L592 760L591 760L590 760C585.629 764.118 580.943 761.919 576 760z"/>
<path style="fill:#c9a07c; stroke:none;" d="M596 760L597 761L596 760M606 760L607 761L606 760M356.333 761.667L356.667 762.333L356.333 761.667z"/>
<path style="fill:#9e9fa9; stroke:none;" d="M369 761L370 766L375 765L375 764L372 764L369 761M376 761L376 766C378.034 764.231 378.034 762.769 376 761M379 767L380 767L382 763L383 763L382 766L389 764L388 761C382.887 761.33 380.431 761.698 379 767M399 761L397 766L400 767L401 766L399 761z"/>
<path style="fill:#c9a07c; stroke:none;" d="M406 761L407 762L406 761z"/>
<path style="fill:#9e9fa9; stroke:none;" d="M410 761L408 767L411 763L413 763L412 766L412 767L415 763L418 764L410 761M476 761L476 767C478.231 765.053 478.231 762.947 476 761z"/>
<path style="fill:#64636c; stroke:none;" d="M480 761L480 766L481 766L482 766L480 761z"/>
<path style="fill:#9e9fa9; stroke:none;" d="M485 761C485.255 764.298 485.485 766.066 489 766L489 765L486 766L487 761L485 761z"/>
<path style="fill:#64636c; stroke:none;" d="M514 765C511.049 757.628 506.092 766.849 514 765z"/>
<path style="fill:#c9a07c; stroke:none;" d="M515 761L516 762L515 761z"/>
<path style="fill:#64636c; stroke:none;" d="M517 761L517 763L519 761L517 761M522 761L523 766L524 766L524 761L522 761M528 761L529 764L530 764L530 761L528 761z"/>
<path style="fill:#9e9fa9; stroke:none;" d="M405 762L405 766L408 766L408 762L405 762z"/>
<path style="fill:#64636c; stroke:none;" d="M470 762L470 766L471 766L472 762L470 762M476 762L476 766L477 766L476 762M486 762L487 766L488 766L486 762M491 762L492 763L491 762M493 762L494 765L495 765L493 762M500 762L500 766L501 766L503 763L500 762z"/>
<path style="fill:#58473c; stroke:none;" d="M501 762L502 763L501 762z"/>
<path style="fill:#64636c; stroke:none;" d="M504 762L503 765L505 766L506 766L504 762z"/>
<path style="fill:#9e9fa9; stroke:none;" d="M508 762L509 763L508 762M509 763L509 764L512 765L513 765L512 762L509 763M513 762L514 763L513 762M521 762L521 766L522 766L521 762z"/>
<path style="fill:#c9a07c; stroke:none;" d="M524 762L525 763L524 762M575.333 762.667L575.667 763.333L575.333 762.667z"/>
<path style="fill:#64636c; stroke:none;" d="M576 762L577 763L576 762z"/>
<path style="fill:#c9a07c; stroke:none;" d="M577 762L578 763L577 762M587 762L588 763L587 762M594 762L595 763L594 762z"/>
<path style="fill:#64636c; stroke:none;" d="M607 762L608 763L607 762z"/>
<path style="fill:#c9a07c; stroke:none;" d="M620 762L621 763L620 762M374 763L375 764L374 763z"/>
<path style="fill:#9e9fa9; stroke:none;" d="M392 763L391 765L391 766L395 765L395 764L392 763z"/>
<path style="fill:#c9a07c; stroke:none;" d="M402 763L403 764L402 763M409 763L410 764L409 763z"/>
<path style="fill:#58473c; stroke:none;" d="M480 763L481 764L480 763z"/>
<path style="fill:#f2f1f1; stroke:none;" d="M492.333 763.667L492.667 764.333L492.333 763.667z"/>
<path style="fill:#c9a07c; stroke:none;" d="M506 763L507 764L506 763z"/>
<path style="fill:#f2f1f1; stroke:none;" d="M510 763L510 765L512 765L512 763L510 763M577 763L578 764L577 763z"/>
<path style="fill:#64636c; stroke:none;" d="M598 763L597 765L598 763M604.667 763.333L605.333 763.667L604.667 763.333M616 763L617 764L616 763z"/>
<path style="fill:#c9a07c; stroke:none;" d="M358.333 764.667L358.667 765.333L358.333 764.667M391 764L392 765L391 764z"/>
<path style="fill:#64636c; stroke:none;" d="M392 764L393 765L392 764z"/>
<path style="fill:#9e9fa9; stroke:none;" d="M402.667 764.333L403.333 764.667L402.667 764.333z"/>
<path style="fill:#64636c; stroke:none;" d="M491 764L494 766L494 765L491 764z"/>
<path style="fill:#58473c; stroke:none;" d="M504.333 764.667L504.667 765.333L504.333 764.667z"/>
<path style="fill:#9e9fa9; stroke:none;" d="M508.333 764.667L508.667 765.333L508.333 764.667z"/>
<path style="fill:#c9a07c; stroke:none;" d="M528 764L529 765L528 764z"/>
<path style="fill:#64636c; stroke:none;" d="M530 764L528 765L528 766L530 764M589 764L590 765L589 764M630 764L631 765L630 764M369 765L370 766L369 765z"/>
<path style="fill:#58473c; stroke:none;" d="M383 765L384 766L383 765z"/>
<path style="fill:#64636c; stroke:none;" d="M384 765L385 766L384 765M412.667 765.333L413.333 765.667L412.667 765.333z"/>
<path style="fill:#58473c; stroke:none;" d="M486 765L487 766L486 765z"/>
<path style="fill:#9e9fa9; stroke:none;" d="M513 765L514 766L513 765z"/>
<path style="fill:#58473c; stroke:none;" d="M522 765L523 766L522 765z"/>
<path style="fill:#9e9fa9; stroke:none;" d="M527 765L528 766L527 765z"/>
<path style="fill:#64636c; stroke:none;" d="M577 765L578 766L577 765z"/>
<path style="fill:#c9a07c; stroke:none;" d="M485 766L486 767L485 766M488 766L489 767L488 766M504 766L505 767L504 766z"/>
<path style="fill:#9e9fa9; stroke:none;" d="M510.667 766.333L511.333 766.667L510.667 766.333z"/>
<path style="fill:#c9a07c; stroke:none;" d="M522 766L523 767L522 766M524 766L525 767L524 766z"/>
<path style="fill:#9e9fa9; stroke:none;" d="M528.667 766.333L529.333 766.667L528.667 766.333z"/>
<path style="fill:#c9a07c; stroke:none;" d="M356 767L358 770L356 767M358 767L359 768L358 767z"/>
<path style="fill:#9e9fa9; stroke:none;" d="M358 768L358 773L359 773L358 768M369 768L369 774L380 771L378 773L378 774L384 774L384 770L369 768z"/>
<path style="fill:#c9a07c; stroke:none;" d="M372 768L373 769L372 768M400 768L401 769L400 768z"/>
<path style="fill:#9e9fa9; stroke:none;" d="M597 768L597 774L599 771L601 774L617 773L617 769L610 772L609 768L597 768M619 768L620 774L624 774L622 768L619 768M623 768L624 769L623 768z"/>
<path style="fill:#64636c; stroke:none;" d="M369 769L370 770L369 769z"/>
<path style="fill:#9e9fa9; stroke:none;" d="M387 769L388 775L408 774L408 771L401 769L400 769L388 771L389 769L387 769z"/>
<path style="fill:#c9a07c; stroke:none;" d="M596 769L597 770L596 769M601 769L602 770L601 769M612 769L613 770L612 769z"/>
<path style="fill:#9e9fa9; stroke:none;" d="M626 769L625 774L631 774L631 769L626 769z"/>
<path style="fill:#c9a07c; stroke:none;" d="M380 770L381 771L380 770z"/>
<path style="fill:#64636c; stroke:none;" d="M388 770L389 771L388 770z"/>
<path style="fill:#c9a07c; stroke:none;" d="M395 770L396 771L395 770M401 770L402 771L401 770M406 770L407 771L406 770z"/>
<path style="fill:#64636c; stroke:none;" d="M597.333 770.667L597.667 771.333L597.333 770.667M608 770L608 773L609 773L608 770M379 771L378 773L380 773L379 771M382.333 771.667L382.667 772.333L382.333 771.667z"/>
<path style="fill:#c9a07c; stroke:none;" d="M464 771L465 772L464 771z"/>
<path style="fill:#9e9fa9; stroke:none;" d="M460 775L479 775L478 771C473.419 772.232 461.07 770.007 460 775M482 772L481 774L481 775L491 775L491 771L482 772z"/>
<path style="fill:#c9a07c; stroke:none;" d="M495 771L496 772L495 771z"/>
<path style="fill:#9e9fa9; stroke:none;" d="M499 771L493 775C497.951 774.997 508.322 776.749 510 771L500 773L499 771M511 771L511 775L516 775L515 771L511 771z"/>
<path style="fill:#c9a07c; stroke:none;" d="M515 771L516 772L515 771z"/>
<path style="fill:#9e9fa9; stroke:none;" d="M516 772L516 773L530 775L530 771L516 772M533 771L533 774L538 774L533 771M540 771L547 775L548 772L540 771z"/>
<path style="fill:#c9a07c; stroke:none;" d="M551 771L552 772L551 771z"/>
<path style="fill:#9e9fa9; stroke:none;" d="M552 771L551 775L552 775L552 771M555 771L556 775L557 775L557 771L555 771M559 774L563 774L562 771L559 774z"/>
<path style="fill:#f2f1f1; stroke:none;" d="M606.333 771.667L606.667 772.333L606.333 771.667z"/>
<path style="fill:#64636c; stroke:none;" d="M612 771L613 772L612 771z"/>
<path style="fill:#c9a07c; stroke:none;" d="M624 771L624 774L625 774L624 771z"/>
<path style="fill:#64636c; stroke:none;" d="M629 771L630 772L629 771z"/>
<path style="fill:#c9a07c; stroke:none;" d="M384 772L385 773L384 772z"/>
<path style="fill:#64636c; stroke:none;" d="M402 772L403 773L402 772z"/>
<path style="fill:#9e9fa9; stroke:none;" d="M437 775C441.67 774.627 453.811 777.548 455 772C450.435 772.449 438.115 769.795 437 775M456 772L456 775L458 772L456 772z"/>
<path style="fill:#c9a07c; stroke:none;" d="M466 772L467 773L466 772M493 772L494 773L493 772z"/>
<path style="fill:#64636c; stroke:none;" d="M511.333 772.667L511.667 773.333L511.333 772.667M523.333 772.667L523.667 773.333L523.333 772.667z"/>
<path style="fill:#c9a07c; stroke:none;" d="M559 772L560 773L559 772M562 772L563 773L562 772M619 772L620 773L619 772M358 773L359 774L358 773M370 773L371 774L370 773z"/>
<path style="fill:#64636c; stroke:none;" d="M441 773L442 774L441 773M464 773L465 774L464 773M482 773L483 774L482 773M486 773L487 774L486 773M495 773L496 774L495 773M499 773L500 774L499 773z"/>
<path style="fill:#c9a07c; stroke:none;" d="M510 773L511 774L510 773M600 773L601 774L600 773M603 773L604 774L603 773M609 773L609 774L612 774L609 773M615 773L616 774L615 773M629 773L630 774L629 773M398 774L399 775L398 774M488 774L489 775L488 774M526 774L527 775L526 774M356 775L357 776L356 775z"/>
<path style="fill:#9e9fa9; stroke:none;" d="M356 776L357 777L356 776M358 776L359 779L358 776z"/>
<path style="fill:#c9a07c; stroke:none;" d="M359 779L359 780L363 781L360 784L359 781L358 781L358 799L360 798L360 803L358 802L358 817L359 817L359 807L360 807L360.152 884.576L361 922L365 920L365 924L393 926L393 927L384 927L384 928C402.391 928 420.224 928.929 437.804 924.576C441.73 923.603 444.312 925.58 448 923L450 923L451 923L453 926L441 926L441 927C480.049 927 518.942 926 558 926C577.528 926 600.997 929.524 620 925L620 924L607 925L609 922L610 922C614.236 925.192 619.197 922.991 624 922L624 923L622 923L622 924C627.041 922.545 632.054 920.593 633 915L636 916C644.066 900.83 642 884.864 642 868C642 838.835 640.305 809.084 642 780C578.549 780 515.39 781 452 781C422.431 781 387.856 785.873 359 779z"/>
<path style="fill:#9e9fa9; stroke:none;" d="M359 780L360 784L363 781L359 780M522 781L523 782L522 781M598 781L599 782L598 781z"/>
<path style="fill:#f2f1f1; stroke:none;" d="M639.333 790.667L639.667 791.333L639.333 790.667z"/>
<path style="fill:#9e9fa9; stroke:none;" d="M359 798L359 803L360 803L359 798M359 807L359 894C359 900.811 355.23 919.116 360.603 924.141C366.201 929.376 385.627 927 393 927L393 926L365 924L365 920L361 922C356.372 895.91 360 865.567 360 839C360 829.678 362.607 815.596 359 807z"/>
<path style="fill:#c9a07c; stroke:none;" d="M358 819L358 871L359 871L359 836L358 819M358 880L358 912L359 912L358 880z"/>
<path style="fill:#9e9fa9; stroke:none;" d="M641.333 901.667L641.667 902.333L641.333 901.667M636 911L635 914L636 911M633.333 915.667L633.667 916.333L633.333 915.667z"/>
<path style="fill:#c9a07c; stroke:none;" d="M358 916L358 924L359 924L358 916z"/>
<path style="fill:#9e9fa9; stroke:none;" d="M493.667 917.333L494.333 917.667L493.667 917.333M608 917L609 918L608 917M631 917L629 920L631 917M624.667 921.333L625.333 921.667L624.667 921.333M609 922L607 925L624 923L624 922L609 922M415 923L411 926L411 927L422 927L422 925L415 923M435 927L453 926L451 923L450 923L448 923L435 927M531 924L531 925L541 925L531 924z"/>
<path style="fill:#c9a07c; stroke:none;" d="M359 924L360 925L359 924z"/>
<path style="fill:#9e9fa9; stroke:none;" d="M394 927L409 927C404.99 924.167 397.625 923.519 394 927M462 925L462 926L469 925L462 925M474 924L475 925L474 924M476 926L479 924L476 926M492 926L502 925C498.756 923.639 494.437 923.211 492 926M504.667 924.333L505.333 924.667L504.667 924.333M507 924L507 925L510 925L507 924M511 924L512 925L511 924M515 924L515 925L519 925L515 924M526 924L526 925L530 925L526 924M542 924L542 925L545 925L542 924M550 924L550 925L554 925L550 924M555 924L555 925L558 925L555 924M560 924L560 925L581 925L560 924M585 924L585 925L590 925L585 924M591 924L591 925L606 925L591 924z"/>
<path style="fill:#c9a07c; stroke:none;" d="M360 925L360 926L363 926L360 925M363 926L363 927L376 927L363 926z"/>
<path style="fill:#9e9fa9; stroke:none;" d="M456 925L457 926L456 925M458 925L459 926L458 925z"/>
</svg>
